<svg width="21" height="20" viewBox="0 0 21 20" fill="currentColor" xmlns="http://www.w3.org/2000/svg">
<path d="M15.375 18.9583C14.4333 18.9583 13.4417 18.7333 12.4167 18.3C11.4167 17.875 10.4083 17.2916 9.425 16.5833C8.45 15.8666 7.50833 15.0666 6.61667 14.1916C5.73333 13.3 4.93333 12.3583 4.225 11.3916C3.50833 10.3916 2.93333 9.39163 2.525 8.42496C2.09167 7.39163 1.875 6.39163 1.875 5.44996C1.875 4.79996 1.99167 4.18329 2.21667 3.60829C2.45 3.01663 2.825 2.46663 3.33333 1.99163C3.975 1.35829 4.70833 1.04163 5.49167 1.04163C5.81667 1.04163 6.15 1.11663 6.43333 1.24996C6.75833 1.39996 7.03333 1.62496 7.23333 1.92496L9.16667 4.64996C9.34167 4.89163 9.475 5.12496 9.56667 5.35829C9.675 5.60829 9.73333 5.85829 9.73333 6.09996C9.73333 6.41663 9.64167 6.72496 9.46667 7.01663C9.34167 7.24163 9.15 7.48329 8.90833 7.72496L8.34167 8.31663C8.35 8.34163 8.35833 8.35829 8.36667 8.37496C8.46667 8.54996 8.66667 8.84996 9.05 9.29996C9.45833 9.76663 9.84167 10.1916 10.225 10.5833C10.7167 11.0666 11.125 11.45 11.5083 11.7666C11.9833 12.1666 12.2917 12.3666 12.475 12.4583L12.4583 12.5L13.0667 11.9C13.325 11.6416 13.575 11.45 13.8167 11.325C14.275 11.0416 14.8583 10.9916 15.4417 11.2333C15.6583 11.325 15.8917 11.45 16.1417 11.625L18.9083 13.5916C19.2167 13.8 19.4417 14.0666 19.575 14.3833C19.7 14.7 19.7583 14.9916 19.7583 15.2833C19.7583 15.6833 19.6667 16.0833 19.4917 16.4583C19.3167 16.8333 19.1 17.1583 18.825 17.4583C18.35 17.9833 17.8333 18.3583 17.2333 18.6C16.6583 18.8333 16.0333 18.9583 15.375 18.9583ZM5.49167 2.29163C5.03333 2.29163 4.60833 2.49163 4.2 2.89163C3.81667 3.24996 3.55 3.64163 3.38333 4.06663C3.20833 4.49996 3.125 4.95829 3.125 5.44996C3.125 6.22496 3.30833 7.06663 3.675 7.93329C4.05 8.81663 4.575 9.73329 5.24167 10.65C5.90833 11.5666 6.66667 12.4583 7.5 13.3C8.33333 14.125 9.23333 14.8916 10.1583 15.5666C11.0583 16.225 11.9833 16.7583 12.9 17.1416C14.325 17.75 15.6583 17.8916 16.7583 17.4333C17.1833 17.2583 17.5583 16.9916 17.9 16.6083C18.0917 16.4 18.2417 16.175 18.3667 15.9083C18.4667 15.7 18.5167 15.4833 18.5167 15.2666C18.5167 15.1333 18.4917 15 18.425 14.85C18.4 14.8 18.35 14.7083 18.1917 14.6L15.425 12.6333C15.2583 12.5166 15.1083 12.4333 14.9667 12.375C14.7833 12.3 14.7083 12.225 14.425 12.4C14.2583 12.4833 14.1083 12.6083 13.9417 12.775L13.3083 13.4C12.9833 13.7166 12.4833 13.7916 12.1 13.65L11.875 13.55C11.5333 13.3666 11.1333 13.0833 10.6917 12.7083C10.2917 12.3666 9.85833 11.9666 9.33333 11.45C8.925 11.0333 8.51667 10.5916 8.09167 10.1C7.7 9.64163 7.41667 9.24996 7.24167 8.92496L7.14167 8.67496C7.09167 8.48329 7.075 8.37496 7.075 8.25829C7.075 7.95829 7.18333 7.69163 7.39167 7.48329L8.01667 6.83329C8.18333 6.66663 8.30833 6.50829 8.39167 6.36663C8.45833 6.25829 8.48333 6.16663 8.48333 6.08329C8.48333 6.01663 8.45833 5.91663 8.41667 5.81663C8.35833 5.68329 8.26667 5.53329 8.15 5.37496L6.21667 2.64163C6.13333 2.52496 6.03333 2.44163 5.90833 2.38329C5.775 2.32496 5.63333 2.29163 5.49167 2.29163ZM12.4583 12.5083L12.325 13.075L12.55 12.4916C12.5083 12.4833 12.475 12.4916 12.4583 12.5083Z" fill="#757575"/>
<path d="M16.25 8.12504C15.9084 8.12504 15.625 7.84171 15.625 7.50004C15.625 7.20004 15.325 6.57504 14.825 6.04171C14.3334 5.51671 13.7917 5.20837 13.3334 5.20837C12.9917 5.20837 12.7084 4.92504 12.7084 4.58337C12.7084 4.24171 12.9917 3.95837 13.3334 3.95837C14.1417 3.95837 14.9917 4.39171 15.7334 5.18337C16.425 5.92504 16.875 6.83337 16.875 7.50004C16.875 7.84171 16.5917 8.12504 16.25 8.12504Z" fill="#757575"/>
<path d="M19.1667 8.12496C18.825 8.12496 18.5417 7.84163 18.5417 7.49996C18.5417 4.62496 16.2084 2.29163 13.3334 2.29163C12.9917 2.29163 12.7084 2.00829 12.7084 1.66663C12.7084 1.32496 12.9917 1.04163 13.3334 1.04163C16.8917 1.04163 19.7917 3.94163 19.7917 7.49996C19.7917 7.84163 19.5084 8.12496 19.1667 8.12496Z" fill="#757575"/>
</svg>
