<svg width="24" height="24" viewBox="0 0 24 24" fill="none" xmlns="http://www.w3.org/2000/svg">
<path d="M12 1.75C17.6539 1.75 22.25 6.34614 22.25 12C22.25 17.6539 17.6539 22.25 12 22.25C6.34614 22.25 1.75 17.6539 1.75 12C1.75 6.34614 6.34614 1.75 12 1.75ZM12 2.25C6.62386 2.25 2.25 6.62386 2.25 12C2.25 17.3761 6.62386 21.75 12 21.75C17.3761 21.75 21.75 17.3761 21.75 12C21.75 6.62386 17.3761 2.25 12 2.25Z" fill="#B3B3B3" stroke="#B3B3B3"/>
<path d="M14.6543 8.99377C14.749 8.89911 14.9121 8.89906 15.0068 8.99377C15.1014 9.08851 15.1014 9.25161 15.0068 9.34631L9.34082 15.0123L9.33496 15.0192C9.30468 15.0515 9.24519 15.0797 9.16992 15.0797C9.12173 15.0796 9.07573 15.0674 9.03418 15.0397L8.99414 15.0065C8.91124 14.9236 8.9007 14.7881 8.96289 14.692L8.99414 14.6539L14.6543 8.99377Z" fill="#B3B3B3" stroke="#B3B3B3"/>
<path d="M8.99414 8.99377C9.0771 8.91081 9.21254 8.90019 9.30859 8.96252L9.34668 8.99377L15.0068 14.6539C15.1014 14.7487 15.1015 14.9118 15.0068 15.0065C14.9555 15.0578 14.8946 15.0797 14.8301 15.0797C14.7819 15.0797 14.7359 15.0674 14.6943 15.0397L14.6543 15.0065L8.99414 9.34631C8.8994 9.25158 8.8994 9.08851 8.99414 8.99377Z" fill="#B3B3B3" stroke="#B3B3B3"/>
</svg>
