<svg width="24" height="24" viewBox="0 0 24 24" fill="none" xmlns="http://www.w3.org/2000/svg">
<path d="M16.5 6C16.5 3.525 14.475 1.5 12 1.5C9.525 1.5 7.5 3.525 7.5 6V12.75C7.5 15.225 9.525 17.25 12 17.25C14.475 17.25 16.5 15.225 16.5 12.75V6ZM15 6V12.75C15 14.4 13.65 15.75 12 15.75C10.35 15.75 9 14.4 9 12.75V6C9 4.35 10.35 3 12 3C13.65 3 15 4.35 15 6Z" fill="white"/>
<path d="M11.25 20.25V21.825C11.25 22.275 11.625 22.575 12 22.575C12.45 22.575 12.75 22.2 12.75 21.825V20.325C16.5 19.95 19.5 16.725 19.5 12.9C19.5 12.45 19.2 12.15 18.75 12.15C18.3 12.15 18 12.45 18 12.9C18 16.2 15.3 18.9 12 18.9C8.7 18.9 6 16.2 6 12.9C6 12.45 5.7 12.15 5.25 12.15C4.8 12.15 4.5 12.45 4.5 12.9C4.5 16.65 7.5 19.875 11.25 20.25Z" fill="white"/>
</svg>
