<svg width="20" height="20" viewBox="0 0 20 20" fill="none" xmlns="http://www.w3.org/2000/svg">
<path d="M9.24967 6.66671H5.74967C2.83301 6.66671 1.66634 7.83337 1.66634 10.75V14.25C1.66634 17.1667 2.83301 18.3334 5.74967 18.3334H9.24967C12.1663 18.3334 13.333 17.1667 13.333 14.25V10.75C13.333 7.83337 12.1663 6.66671 9.24967 6.66671Z" stroke="#989898" stroke-width="1.5" stroke-linecap="round" stroke-linejoin="round"/>
<path d="M14.2497 1.66671H10.7497C7.83301 1.66671 6.66634 2.83337 6.66634 5.75004V6.66671H9.24968C12.1663 6.66671 13.333 7.83337 13.333 10.75V13.3334H14.2497C17.1663 13.3334 18.333 12.1667 18.333 9.25004V5.75004C18.333 2.83337 17.1663 1.66671 14.2497 1.66671Z" stroke="#989898" stroke-width="1.5" stroke-linecap="round" stroke-linejoin="round"/>
</svg>
