<svg width="24" height="24" viewBox="0 0 24 24" fill="none" xmlns="http://www.w3.org/2000/svg">
<path d="M15 22.75H9C3.57 22.75 1.25 20.43 1.25 15V9C1.25 3.57 3.57 1.25 9 1.25H11C11.41 1.25 11.75 1.59 11.75 2C11.75 2.41 11.41 2.75 11 2.75H9C4.39 2.75 2.75 4.39 2.75 9V15C2.75 19.61 4.39 21.25 9 21.25H15C19.61 21.25 21.25 19.61 21.25 15V13C21.25 12.59 21.59 12.25 22 12.25C22.41 12.25 22.75 12.59 22.75 13V15C22.75 20.43 20.43 22.75 15 22.75Z" fill="white"/>
<path d="M8.49996 17.6901C7.88996 17.6901 7.32996 17.4701 6.91996 17.0701C6.42996 16.5801 6.21996 15.8701 6.32996 15.1201L6.75996 12.1101C6.83996 11.5301 7.21996 10.7801 7.62996 10.3701L15.51 2.49006C17.5 0.500059 19.52 0.500059 21.51 2.49006C22.6 3.58006 23.09 4.69006 22.99 5.80006C22.9 6.70006 22.42 7.58006 21.51 8.48006L13.63 16.3601C13.22 16.7701 12.47 17.1501 11.89 17.2301L8.87996 17.6601C8.74996 17.6901 8.61996 17.6901 8.49996 17.6901ZM16.57 3.55006L8.68996 11.4301C8.49996 11.6201 8.27996 12.0601 8.23996 12.3201L7.80996 15.3301C7.76996 15.6201 7.82996 15.8601 7.97996 16.0101C8.12996 16.1601 8.36996 16.2201 8.65996 16.1801L11.67 15.7501C11.93 15.7101 12.38 15.4901 12.56 15.3001L20.44 7.42006C21.09 6.77006 21.43 6.19006 21.48 5.65006C21.54 5.00006 21.2 4.31006 20.44 3.54006C18.84 1.94006 17.74 2.39006 16.57 3.55006Z" fill="white"/>
<path d="M14.8491 3.89038C14.9667 3.86112 15.0801 3.91632 15.1304 4.01636L15.1479 4.06226L15.1489 4.06519C15.7961 6.36272 17.617 8.1836 19.9146 8.83081V8.83179H19.9175C20.0267 8.86182 20.1056 8.97182 20.0972 9.09448L20.0884 9.14722L20.0864 9.1521C20.0578 9.26012 19.9665 9.32982 19.8501 9.32983C19.8387 9.32983 19.8282 9.32911 19.8198 9.32788C19.8111 9.32659 19.8071 9.32559 19.8081 9.32593L19.7974 9.32202L19.7856 9.31909L19.5562 9.24976C17.278 8.52676 15.4628 6.71241 14.7397 4.43433L14.6714 4.20483C14.6367 4.07325 14.709 3.93492 14.8491 3.89038Z" fill="white" stroke="white"/>
</svg>
