<svg width="20" height="20" viewBox="0 0 20 20" fill="none" xmlns="http://www.w3.org/2000/svg">
<path d="M12.7169 18.5416H7.28356C3.19189 18.5416 1.44189 16.7916 1.44189 12.6999V12.5916C1.44189 8.89161 2.90023 7.10827 6.16689 6.79994C6.50023 6.77494 6.81689 7.02494 6.85023 7.36661C6.88356 7.70827 6.63356 8.01661 6.28356 8.04994C3.66689 8.29161 2.69189 9.52494 2.69189 12.5999V12.7083C2.69189 16.0999 3.89189 17.2999 7.28356 17.2999H12.7169C16.1086 17.2999 17.3086 16.0999 17.3086 12.7083V12.5999C17.3086 9.50827 16.3169 8.27494 13.6502 8.04994C13.3086 8.01661 13.0502 7.71661 13.0836 7.37494C13.1169 7.03327 13.4086 6.77494 13.7586 6.80827C17.0752 7.09161 18.5586 8.88327 18.5586 12.6083V12.7166C18.5586 16.7916 16.8086 18.5416 12.7169 18.5416Z" fill="#31A354"/>
<path d="M10 13.1251C9.65833 13.1251 9.375 12.8417 9.375 12.5001V3.01672C9.375 2.67506 9.65833 2.39172 10 2.39172C10.3417 2.39172 10.625 2.67506 10.625 3.01672V12.5001C10.625 12.8417 10.3417 13.1251 10 13.1251Z" fill="#31A354"/>
<path d="M12.7917 5.50003C12.6334 5.50003 12.475 5.4417 12.35 5.3167L10 2.9667L7.65003 5.3167C7.40837 5.55837 7.00837 5.55837 6.7667 5.3167C6.52503 5.07503 6.52503 4.67503 6.7667 4.43337L9.55837 1.6417C9.80003 1.40003 10.2 1.40003 10.4417 1.6417L13.2334 4.43337C13.475 4.67503 13.475 5.07503 13.2334 5.3167C13.1167 5.4417 12.95 5.50003 12.7917 5.50003Z" fill="#31A354"/>
</svg>
