<svg width="25" height="24" viewBox="0 0 25 24" fill="none" xmlns="http://www.w3.org/2000/svg">
<g clip-path="url(#clip0_140_3085)">
<path d="M20.8188 3.51471C18.5523 1.24823 15.5388 0 12.3335 0C9.12805 0 6.11469 1.24823 3.84821 3.51471C1.58173 5.78119 0.333496 8.79456 0.333496 12C0.333496 15.2053 1.58173 18.2188 3.84821 20.4853C6.11469 22.7518 9.12805 24 12.3335 24C15.5388 24 18.5523 22.7518 20.8188 20.4853C23.0853 18.2188 24.3335 15.2053 24.3335 12C24.3335 8.79456 23.0853 5.78119 20.8188 3.51471ZM6.34943 20.7369C6.85132 17.8471 9.35547 15.7156 12.3335 15.7156C15.3117 15.7156 17.8157 17.8471 18.3176 20.7369C16.6138 21.9075 14.5524 22.5938 12.3335 22.5938C10.1146 22.5938 8.05322 21.9075 6.34943 20.7369ZM8.51794 10.4938C8.51794 8.38971 10.2296 6.67822 12.3335 6.67822C14.4374 6.67822 16.149 8.38989 16.149 10.4938C16.149 12.5977 14.4374 14.3093 12.3335 14.3093C10.2296 14.3093 8.51794 12.5977 8.51794 10.4938ZM19.5356 19.7615C19.1571 18.4162 18.4055 17.1956 17.3519 16.2422C16.7055 15.6572 15.9698 15.1956 15.1788 14.8702C16.6085 13.9376 17.5555 12.3243 17.5555 10.4938C17.5555 7.61444 15.2128 5.27197 12.3335 5.27197C9.45416 5.27197 7.11169 7.61444 7.11169 10.4938C7.11169 12.3243 8.05872 13.9376 9.48822 14.8702C8.69739 15.1956 7.96149 15.657 7.31512 16.242C6.26172 17.1954 5.50989 18.416 5.13141 19.7613C3.04675 17.8253 1.73975 15.0626 1.73975 12C1.73975 6.15857 6.49207 1.40625 12.3335 1.40625C18.1749 1.40625 22.9272 6.15857 22.9272 12C22.9272 15.0628 21.6202 17.8255 19.5356 19.7615Z" fill="#31A354"/>
</g>
<defs>
<clipPath id="clip0_140_3085">
<rect width="24" height="24" fill="white" transform="translate(0.333496)"/>
</clipPath>
</defs>
</svg>
