<svg width="25" height="24" viewBox="0 0 25 24" fill="none" xmlns="http://www.w3.org/2000/svg">
<path d="M4.64477 9.33344C3.21365 9.33344 2.04932 10.4978 2.04932 11.9289C2.04932 13.36 3.21365 14.5243 4.64477 14.5243C6.07589 14.5243 7.24023 13.36 7.24023 11.9289C7.24023 10.4978 6.07594 9.33344 4.64477 9.33344ZM4.64477 13.5644C3.743 13.5644 3.00932 12.8307 3.00932 11.9289C3.00932 11.0272 3.743 10.2935 4.64477 10.2935C5.54655 10.2935 6.28023 11.0272 6.28023 11.9289C6.28023 12.8307 5.54655 13.5644 4.64477 13.5644Z" fill="white"/>
<path d="M12.4846 9.33344C11.0535 9.33344 9.88916 10.4978 9.88916 11.9289C9.88916 13.36 11.0535 14.5243 12.4846 14.5243C13.9157 14.5243 15.0801 13.36 15.0801 11.9289C15.0801 10.4978 13.9158 9.33344 12.4846 9.33344ZM12.4846 13.5644C11.5828 13.5644 10.8492 12.8307 10.8492 11.9289C10.8492 11.0272 11.5828 10.2935 12.4846 10.2935C13.3864 10.2935 14.1201 11.0272 14.1201 11.9289C14.1201 12.8307 13.3864 13.5644 12.4846 13.5644Z" fill="white"/>
<path d="M20.324 9.33344C18.8929 9.33344 17.7285 10.4978 17.7285 11.9289C17.7285 13.36 18.8929 14.5243 20.324 14.5243C21.7551 14.5243 22.9194 13.36 22.9194 11.9289C22.9194 10.4978 21.7551 9.33344 20.324 9.33344ZM20.324 13.5644C19.4222 13.5644 18.6885 12.8307 18.6885 11.9289C18.6885 11.0272 19.4222 10.2935 20.324 10.2935C21.2257 10.2935 21.9594 11.0272 21.9594 11.9289C21.9594 12.8307 21.2257 13.5644 20.324 13.5644Z" fill="white"/>
</svg>
