<svg width="20" height="20" viewBox="0 0 20 20" fill="none" xmlns="http://www.w3.org/2000/svg">
<g clip-path="url(#clip0_120_626)">
<path d="M11.3322 16.4014C11.6095 16.4027 11.8348 16.1787 11.8348 15.9014V12.3467L12.8502 13.1567C13.3622 13.5614 13.9842 12.7854 13.4735 12.3747L11.6468 10.9174C11.4648 10.7774 11.2035 10.7801 11.0215 10.9181L9.19482 12.3754C8.68615 12.7841 9.30415 13.5634 9.81815 13.1574L10.8335 12.3474V15.9001C10.8328 16.1761 11.0562 16.4007 11.3322 16.4014Z" fill="#31A354"/>
<path d="M16.668 4.46073H11.566C10.8293 4.46273 10.142 4.08806 9.74397 3.46806L9.06397 2.41073C8.4833 1.50273 7.4793 0.95406 6.4013 0.95606H3.33464C1.58664 0.95806 0.169969 2.37473 0.167969 4.12273V13.8801C0.174635 14.5321 1.16264 14.5361 1.16797 13.8801V4.12273C1.1693 2.92673 2.13864 1.95739 3.33464 1.95606H6.4013C7.13864 1.95473 7.8253 2.32939 8.2233 2.95006L8.9033 4.00806C9.48464 4.91539 10.4886 5.46273 11.566 5.46073H16.668C17.864 5.46206 18.8333 6.43139 18.8346 7.62739V15.2134C18.8326 16.7774 17.5653 18.0447 16.0013 18.0467H4.0013H3.57864C3.0433 18.0501 2.6373 17.5181 2.77864 17.0027L4.4033 10.7827C4.65197 9.82806 5.51464 9.16139 6.5013 9.16139H17.3346C17.9833 9.16073 17.9926 8.16339 17.3346 8.16139H6.5013C5.05997 8.16006 3.7993 9.13273 3.43464 10.5274L1.80997 16.7474C1.49597 17.8834 2.39597 19.0521 3.57264 19.0441H15.9986C18.1146 19.0414 19.8293 17.3267 19.832 15.2107V7.62739C19.83 5.88073 18.4146 4.46406 16.668 4.46073Z" fill="#31A354"/>
</g>
<defs>
<clipPath id="clip0_120_626">
<rect width="20" height="20" fill="white"/>
</clipPath>
</defs>
</svg>
