<svg width="20" height="20" viewBox="0 0 20 20" fill="none" xmlns="http://www.w3.org/2000/svg">
<path d="M13.7389 8.05721C14.1989 8.05721 14.6589 7.88208 15.0091 7.53198C15.348 7.19328 15.5345 6.74211 15.5345 6.26196C15.5345 5.78182 15.348 5.33081 15.0091 4.99211C14.3086 4.29159 13.1689 4.29191 12.4691 4.99178C12.1302 5.33065 11.9434 5.78166 11.9434 6.26196C11.9434 6.74227 12.1302 7.19328 12.4691 7.53215C12.819 7.88224 13.279 8.05721 13.7389 8.05721ZM12.9404 5.46313C13.3802 5.02303 14.0967 5.02271 14.5378 5.46346C14.7507 5.67635 14.8678 5.95988 14.8678 6.26196C14.8678 6.56405 14.7507 6.84774 14.5378 7.06063C14.097 7.50073 13.3805 7.5009 12.9404 7.06079C12.7275 6.84774 12.61 6.56405 12.61 6.26196C12.61 5.95988 12.7275 5.67619 12.9404 5.46313Z" fill="#31A354"/>
<path d="M1.66895 15.9218L1.81934 17.8753C1.83204 18.0392 1.96225 18.1694 2.12598 18.1821L4.07944 18.3325C4.08822 18.3331 4.09669 18.3335 4.10515 18.3335C4.19337 18.3335 4.278 18.2986 4.34083 18.2358L5.28972 17.2869C5.41993 17.1567 5.41993 16.9458 5.28972 16.8156L4.81153 16.3374L5.52996 15.6193L6.00782 16.0973C6.07032 16.1598 6.15496 16.1949 6.2435 16.1949C6.33204 16.1949 6.41667 16.1598 6.47917 16.0973L7.75652 14.8199C7.81902 14.7574 7.85417 14.6726 7.85417 14.5843C7.85417 14.4959 7.81902 14.4111 7.75652 14.3486L7.27833 13.8706L7.99675 13.1525L8.47462 13.6305C8.53712 13.693 8.62175 13.7281 8.71029 13.7281C8.79884 13.7281 8.88347 13.693 8.94597 13.6305L10.9865 11.5898C11.6541 11.8941 12.3828 12.0595 13.1384 12.0595C14.5264 12.0595 15.8314 11.519 16.8128 10.5374C18.8389 8.51135 18.8389 5.2148 16.8128 3.18876C15.8314 2.20715 14.5264 1.66663 13.1384 1.66663C11.7503 1.66663 10.4453 2.20715 9.46387 3.18876C7.89126 4.76137 7.54509 7.09737 8.41379 9.01261L1.76563 15.6606C1.69695 15.7295 1.66147 15.8248 1.66895 15.9218ZM9.93523 3.66012C10.7907 2.80448 11.9284 2.33329 13.1384 2.33329C14.3483 2.33329 15.486 2.80448 16.3415 3.66012C18.1074 5.42623 18.1074 8.29993 16.3415 10.066C15.486 10.9217 14.3483 11.3929 13.1384 11.3929C11.9284 11.3929 10.7907 10.9217 9.93523 10.066C8.16928 8.29993 8.16928 5.42623 9.93523 3.66012ZM8.7423 9.62681C8.94526 9.94965 9.18309 10.2566 9.46387 10.5374C9.74226 10.8158 10.049 11.0544 10.374 11.2596L8.71029 12.9233L8.23243 12.4453C8.16993 12.3828 8.08529 12.3476 7.99675 12.3476C7.90821 12.3476 7.82358 12.3828 7.76108 12.4453L6.5713 13.6349C6.5088 13.6974 6.47364 13.7822 6.47364 13.8706C6.47364 13.9589 6.5088 14.0437 6.5713 14.1062L7.04949 14.5843L6.2435 15.3901L5.76563 14.9121C5.70313 14.8496 5.6185 14.8144 5.52996 14.8144C5.44141 14.8144 5.35678 14.8496 5.29428 14.9121L4.1045 16.1017C4.042 16.1642 4.00684 16.249 4.00684 16.3374C4.00684 16.4257 4.042 16.5105 4.1045 16.573L4.58269 17.0512L3.97787 17.656L2.46225 17.5393L2.34539 16.0236L8.7423 9.62681Z" fill="#31A354"/>
</svg>
