<svg width="25" height="24" viewBox="0 0 25 24" fill="none" xmlns="http://www.w3.org/2000/svg">
<path d="M7.0274 15.1849C6.80765 15.1849 6.58977 15.0885 6.44127 14.9036C4.4294 12.3907 4.06527 8.90962 5.51352 6.03524C5.69952 5.66587 6.1499 5.51587 6.52115 5.70299C6.8909 5.88937 7.03977 6.34049 6.8534 6.71024C5.6684 9.06187 5.96652 11.9104 7.6124 13.9661C7.87115 14.2894 7.81902 14.7615 7.4954 15.0202C7.3574 15.1309 7.19202 15.1849 7.0274 15.1849Z" fill="#31A354"/>
<path d="M7.48058 5.29389C7.28708 5.29389 7.09395 5.21964 6.94695 5.07114C6.65595 4.77639 6.65858 4.30164 6.95333 4.01064L7.21995 3.74702C7.5147 3.45602 7.98945 3.45827 8.28083 3.75339C8.57183 4.04814 8.5692 4.52289 8.27445 4.81389L8.00783 5.07752C7.86195 5.22189 7.67108 5.29389 7.48058 5.29389Z" fill="#0CC121"/>
<path d="M18.736 15.1849C18.5717 15.1849 18.406 15.1309 18.2676 15.0202C17.9443 14.7615 17.8918 14.2894 18.1506 13.9661C19.969 11.6955 20.1122 8.42099 18.5005 6.00336C16.6645 3.24936 12.8965 2.22936 9.92083 3.68136C9.54808 3.86286 9.09995 3.70799 8.91808 3.33636C8.7362 2.96399 8.8907 2.51511 9.26308 2.33324C12.9595 0.528739 17.467 1.74936 19.7485 5.17086C21.7191 8.12624 21.5436 12.1282 19.3217 14.9032C19.1736 15.0885 18.9557 15.1849 18.736 15.1849Z" fill="#31A354"/>
<path d="M12.8881 14.2384C12.8877 14.2384 12.8877 14.2384 12.8881 14.2384C11.7837 14.2384 10.7269 13.8446 9.91282 13.1295C8.36557 11.7705 7.93994 9.46501 8.90032 7.64738C9.67019 6.19088 11.2411 5.24963 12.9027 5.24963C13.2664 5.24963 13.6291 5.29426 13.9797 5.38238C15.9511 5.87701 17.3813 7.71263 17.3813 9.74738C17.3813 11.2035 16.6711 12.5764 15.4823 13.4198C14.7271 13.9553 13.8304 14.2384 12.8881 14.2384ZM12.9027 6.74963C11.7904 6.74963 10.7397 7.37701 10.2267 8.34826C9.58657 9.55913 9.87119 11.0963 10.9028 12.0026C11.4428 12.477 12.1478 12.7384 12.8877 12.7384C13.5173 12.7384 14.1147 12.5509 14.6146 12.1965C15.4081 11.634 15.8817 10.7186 15.8817 9.74738C15.8817 8.39101 14.9284 7.16701 13.6148 6.83738C13.3831 6.77926 13.1434 6.74963 12.9027 6.74963Z" fill="#31A354"/>
<path d="M12.8816 22.4974C12.7173 22.4974 12.5516 22.4434 12.4132 22.3328C12.0899 22.074 12.0374 21.6019 12.2962 21.2786L18.1507 13.9661C18.4098 13.6425 18.8812 13.5908 19.2052 13.8495C19.5284 14.1083 19.5809 14.5804 19.3222 14.9036L13.4677 22.2161C13.3192 22.401 13.1013 22.4974 12.8816 22.4974Z" fill="#31A354"/>
<path d="M12.8824 22.4974C12.6627 22.4974 12.4448 22.401 12.2963 22.2161L6.44182 14.9036C6.18307 14.5804 6.2352 14.1083 6.55882 13.8495C6.8817 13.5908 7.35382 13.6425 7.61332 13.9661L13.4678 21.2786C13.7266 21.6019 13.6744 22.074 13.3508 22.3328C13.2121 22.4434 13.0467 22.4974 12.8824 22.4974Z" fill="#31A354"/>
</svg>
