<svg width="25" height="24" viewBox="0 0 25 24" fill="none" xmlns="http://www.w3.org/2000/svg">
<path fill-rule="evenodd" clip-rule="evenodd" d="M12.5717 5.16372C11.964 5.63049 11.1915 6.41667 10.0848 7.54676C9.49635 8.14764 8.96857 8.58483 8.3262 8.85038C7.68566 9.11519 7.00456 9.17876 6.1727 9.17876C5.45503 9.17876 4.97442 9.17971 4.60828 9.21774C4.25548 9.25439 4.09352 9.31894 3.98611 9.39223C3.69552 9.59049 3.54064 9.89011 3.46772 10.3518C3.40832 10.7279 3.41417 11.1152 3.42075 11.5507C3.42293 11.6947 3.42518 11.8441 3.42518 12.0001C3.42518 12.1561 3.42293 12.3054 3.42075 12.4495C3.41417 12.885 3.40832 13.2722 3.46772 13.6483C3.54064 14.11 3.69552 14.4097 3.98611 14.6079C4.09352 14.6812 4.25548 14.7458 4.60828 14.7824C4.97442 14.8204 5.45503 14.8214 6.1727 14.8214C7.00456 14.8214 7.68566 14.885 8.3262 15.1498C8.96857 15.4153 9.49634 15.8525 10.0848 16.4534C11.1915 17.5835 11.964 18.3697 12.5717 18.8364C13.2052 19.323 13.3951 19.2549 13.4491 19.232C13.5112 19.2058 13.6965 19.1033 13.808 18.298C13.9148 17.5268 13.9166 16.4109 13.9166 14.8136V9.18654C13.9166 7.58929 13.9148 6.47336 13.808 5.70215C13.6965 4.89689 13.5112 4.7944 13.4491 4.76813C13.3951 4.74527 13.2052 4.67715 12.5717 5.16372ZM11.658 3.97413C12.3449 3.44654 13.1622 3.01811 14.0334 3.38662C14.8967 3.75172 15.174 4.6312 15.2939 5.49639C15.4167 6.38312 15.4166 7.60411 15.4166 9.12219V14.878C15.4166 16.396 15.4167 17.617 15.2939 18.5038C15.174 19.3689 14.8967 20.2484 14.0335 20.6135C13.1622 20.982 12.3449 20.5536 11.658 20.026C10.9556 19.4865 10.1092 18.6221 9.05922 17.55L9.01314 17.5029C8.47368 16.9521 8.11572 16.6859 7.75313 16.536C7.38872 16.3853 6.94565 16.3214 6.1727 16.3214H6.13368C5.46518 16.3214 4.90613 16.3214 4.4533 16.2744C3.97835 16.225 3.53739 16.1176 3.14072 15.847C2.38491 15.3313 2.09567 14.5763 1.98608 13.8823C1.90436 13.3648 1.91374 12.7967 1.92129 12.339C1.9233 12.2172 1.92518 12.1032 1.92518 12.0001C1.92518 11.897 1.9233 11.783 1.92129 11.6611C1.91374 11.2035 1.90436 10.6353 1.98608 10.1179C2.09567 9.4239 2.38491 8.66882 3.14071 8.15315C3.53739 7.88251 3.97835 7.7751 4.4533 7.72577C4.90613 7.67873 5.46518 7.67874 6.13369 7.67876H6.1727C6.94565 7.67876 7.38872 7.61482 7.75313 7.46417C8.11572 7.31427 8.47368 7.04807 9.01314 6.49723L9.05922 6.45018C10.1092 5.37804 10.9556 4.51365 11.658 3.97413Z" fill="white"/>
<path fill-rule="evenodd" clip-rule="evenodd" d="M17.2116 8.40383C17.5409 8.15258 18.0115 8.21585 18.2628 8.54516C18.9867 9.49402 19.4165 10.6972 19.4165 12.0001C19.4165 13.3029 18.9867 14.5062 18.2628 15.455C18.0115 15.7843 17.5409 15.8476 17.2116 15.5963C16.8823 15.3451 16.819 14.8744 17.0702 14.5451C17.5971 13.8546 17.9165 12.9703 17.9165 12.0001C17.9165 11.0298 17.5971 10.1455 17.0702 9.45504C16.819 9.12573 16.8823 8.65509 17.2116 8.40383Z" fill="white"/>
<path fill-rule="evenodd" clip-rule="evenodd" d="M20.16 6.4469C20.4655 6.16719 20.94 6.18809 21.2197 6.4936C22.5848 7.98457 23.4165 9.90085 23.4165 12.0001C23.4165 14.0993 22.5848 16.0156 21.2197 17.5065C20.94 17.812 20.4655 17.833 20.16 17.5532C19.8545 17.2735 19.8336 16.7991 20.1133 16.4936C21.2498 15.2523 21.9165 13.6894 21.9165 12.0001C21.9165 10.3108 21.2498 8.74782 20.1133 7.50653C19.8336 7.20103 19.8545 6.72661 20.16 6.4469Z" fill="white"/>
</svg>
