<svg width="20" height="20" viewBox="0 0 20 20" fill="none" xmlns="http://www.w3.org/2000/svg">
<path d="M10 18.9298C9.70918 18.9301 9.42223 18.8629 9.16183 18.7333L5.9058 17.1053C4.69168 16.5034 3.67049 15.5733 2.95806 14.4206C2.24562 13.2679 1.87043 11.9386 1.87504 10.5835V5.83939C1.87406 5.31106 2.05629 4.79873 2.39069 4.3897C2.72509 3.98066 3.19096 3.70022 3.70894 3.59615C4.4963 3.44174 5.26446 3.20188 5.99978 2.88081C6.92754 2.47519 7.79484 1.94336 8.57708 1.30041C8.97851 0.972019 9.48118 0.792603 9.99981 0.792603C10.5185 0.792603 11.0211 0.972019 11.4225 1.30041C12.2052 1.94328 13.0728 2.47523 14.0007 2.88125C14.736 3.20217 15.5042 3.4419 16.2915 3.59617C16.8093 3.70045 17.275 3.98096 17.6093 4.38995C17.9436 4.79895 18.1259 5.31115 18.125 5.83939V10.5835C18.1296 11.9386 17.7544 13.2678 17.042 14.4206C16.3295 15.5733 15.3084 16.5033 14.0943 17.1053L10.8383 18.7333C10.5779 18.8629 10.2909 18.9302 10 18.9298ZM10 2.04179C9.77041 2.04146 9.54778 2.12085 9.37016 2.2664C8.49903 2.98221 7.5333 3.57441 6.50028 4.02624C5.6814 4.3838 4.8259 4.65082 3.94902 4.82255C3.7153 4.87066 3.50547 4.99827 3.35524 5.18366C3.20501 5.36905 3.12366 5.60077 3.12504 5.83939V10.5835C3.12118 11.7063 3.43204 12.8077 4.02236 13.7628C4.61269 14.7179 5.45885 15.4885 6.46488 15.9871L9.7205 17.6151C9.8075 17.6581 9.90322 17.6804 10.0002 17.6804C10.0973 17.6804 10.193 17.6581 10.28 17.6151L13.536 15.9871C14.5419 15.4883 15.3878 14.7177 15.978 13.7626C16.5682 12.8075 16.8789 11.7062 16.875 10.5835V5.83939C16.8764 5.60071 16.795 5.36894 16.6447 5.18354C16.4944 4.99814 16.2845 4.87057 16.0507 4.82255C15.1741 4.65076 14.3189 4.38388 13.5002 4.02662C12.467 3.5746 11.501 2.98227 10.6295 2.26637C10.4521 2.12078 10.2296 2.04139 10 2.04179Z" fill="#31A354"/>
<path d="M10.8332 13.4375H9.99984C9.83409 13.4374 9.67515 13.3716 9.55794 13.2544C9.44074 13.1372 9.37488 12.9782 9.37484 12.8125V10.1041H9.1665C9.00074 10.1041 8.84177 10.0383 8.72456 9.92107C8.60735 9.80386 8.5415 9.64489 8.5415 9.47913C8.5415 9.31337 8.60735 9.15439 8.72456 9.03718C8.84177 8.91997 9.00074 8.85413 9.1665 8.85413H9.99984C10.1656 8.85417 10.3245 8.92003 10.4417 9.03723C10.5589 9.15443 10.6248 9.31338 10.6248 9.47913V12.1875H10.8332C10.9989 12.1875 11.1579 12.2533 11.2751 12.3705C11.3923 12.4877 11.4582 12.6467 11.4582 12.8125C11.4582 12.9782 11.3923 13.1372 11.2751 13.2544C11.1579 13.3716 10.9989 13.4375 10.8332 13.4375Z" fill="#31A354"/>
<path d="M10 7.60413C10.5178 7.60413 10.9375 7.18439 10.9375 6.66663C10.9375 6.14886 10.5178 5.72913 10 5.72913C9.48223 5.72913 9.0625 6.14886 9.0625 6.66663C9.0625 7.18439 9.48223 7.60413 10 7.60413Z" fill="#31A354"/>
</svg>
