<svg width="20" height="20" viewBox="0 0 20 20" fill="none" xmlns="http://www.w3.org/2000/svg">
<g clip-path="url(#clip0_161_2927)">
<path d="M17.3158 16.4041C18.0758 16.285 19.6483 16.01 19.9491 15.3175C20.1008 14.9608 19.8841 14.6708 19.6074 14.6266C16.9341 14.1866 15.7291 11.4475 15.6799 11.3308C14.9391 10.0025 16.9499 10.2258 17.7408 9.41581C18.5124 8.62164 17.2749 7.76164 16.5008 8.12664C16.1833 8.27581 15.7074 8.44914 15.3908 8.30414C15.4658 7.04664 15.6733 4.96164 15.1641 3.82331C13.4516 -0.0125239 8.40161 -0.150857 6.05495 2.07581C4.20578 3.82914 4.43245 5.63164 4.60578 8.30414C4.03078 8.55498 3.46245 8.05664 3.04828 8.05664C2.61328 8.05664 2.10745 8.33914 2.02578 8.76498C1.92245 9.32414 2.52995 9.68414 3.05578 9.89164C3.95161 10.2433 4.80328 10.3475 4.33078 11.3075C4.32661 11.315 4.32328 11.3225 4.32078 11.33C3.65161 12.8583 2.19078 14.3275 0.392447 14.6241C0.102447 14.6716 -0.0958863 14.9775 0.0491137 15.315V15.3166C0.346614 16.01 1.93411 16.2875 2.68328 16.4041C2.91495 16.8375 2.73745 17.6933 3.45495 17.6933C3.73411 17.6933 4.27411 17.5108 4.96328 17.5108C5.96745 17.5108 6.30995 17.73 7.11495 18.2983C7.94161 18.8825 8.84995 19.4533 9.97911 19.3708C11.1549 19.4441 12.0283 18.9033 12.8849 18.3L12.8858 18.2983C13.7208 17.7108 14.3174 17.2766 16.0858 17.6241C17.3941 17.8775 17.0124 16.9916 17.3158 16.4041Z" fill="#31A354"/>
</g>
<defs>
<clipPath id="clip0_161_2927">
<rect width="20" height="20" fill="white"/>
</clipPath>
</defs>
</svg>
