<svg width="25" height="24" viewBox="0 0 25 24" fill="none" xmlns="http://www.w3.org/2000/svg">
<path d="M12.667 9.92737C12.4287 9.92472 12.196 9.99891 12.0032 10.1389C11.8104 10.279 11.6679 10.4774 11.5967 10.7048L11.2045 11.9179H9.92949C9.69193 11.9179 9.46048 11.9931 9.2683 12.1328C9.07613 12.2724 8.93309 12.4694 8.85969 12.6953C8.7863 12.9212 8.7863 13.1646 8.85972 13.3905C8.93313 13.6165 9.07618 13.8134 9.26837 13.953L10.3004 14.703L9.90624 15.9165C9.83325 16.1421 9.83343 16.3851 9.90675 16.6106C9.98007 16.8361 10.1228 17.0327 10.3145 17.1723C10.5062 17.3119 10.7372 17.3873 10.9743 17.3878C11.2115 17.3882 11.4427 17.3138 11.635 17.175L12.667 16.425L13.699 17.175C13.8902 17.3172 14.1221 17.394 14.3603 17.394C14.5985 17.394 14.8304 17.3172 15.0216 17.175C15.2158 17.0371 15.3605 16.8403 15.4341 16.6138C15.5077 16.3872 15.5064 16.143 15.4304 15.9172L15.0362 14.7037L16.0682 13.9537C16.2604 13.8141 16.4035 13.6172 16.4769 13.3913C16.5503 13.1654 16.5503 12.922 16.4769 12.696C16.4035 12.4701 16.2605 12.2732 16.0683 12.1335C15.8761 11.9939 15.6447 11.9187 15.4071 11.9186H14.1321L13.738 10.7055C13.6669 10.4779 13.5243 10.2792 13.3314 10.1391C13.1384 9.99891 12.9054 9.92467 12.667 9.92737ZM13.8587 12.6679H15.4071C15.4864 12.6677 15.5637 12.6928 15.6279 12.7393C15.6921 12.7859 15.7399 12.8516 15.7644 12.927C15.7889 13.0024 15.7888 13.0837 15.7643 13.1591C15.7397 13.2345 15.6918 13.3001 15.6276 13.3466L14.3747 14.2568C14.3108 14.3033 14.2632 14.3689 14.2387 14.4441C14.2143 14.5193 14.2142 14.6004 14.2386 14.6756L14.7171 16.1483C14.7417 16.2236 14.7418 16.3048 14.7174 16.3802C14.693 16.4556 14.6453 16.5213 14.5812 16.568C14.5171 16.6146 14.4398 16.6397 14.3606 16.6397C14.2813 16.6396 14.2041 16.6145 14.14 16.5679L12.8875 15.6574C12.8234 15.6108 12.7462 15.5857 12.667 15.5857C12.5878 15.5857 12.5106 15.6108 12.4465 15.6574L11.194 16.5679C11.1299 16.6145 11.0527 16.6396 10.9734 16.6397C10.8942 16.6397 10.8169 16.6146 10.7528 16.568C10.6887 16.5213 10.641 16.4556 10.6166 16.3802C10.5922 16.3048 10.5923 16.2236 10.6169 16.1483L11.0954 14.6756C11.1198 14.6004 11.1197 14.5193 11.0953 14.4441C11.0708 14.3689 11.0232 14.3033 10.9592 14.2568L9.70637 13.3466C9.64214 13.3001 9.5943 13.2345 9.56973 13.1591C9.54516 13.0837 9.54513 13.0024 9.56963 12.927C9.59413 12.8516 9.6419 12.7859 9.70609 12.7393C9.77028 12.6928 9.84757 12.6677 9.92687 12.6679H11.4752C11.5544 12.6679 11.6316 12.6428 11.6957 12.5962C11.7597 12.5497 11.8074 12.4841 11.8319 12.4088L12.3104 10.9365C12.335 10.8615 12.3827 10.7961 12.4467 10.7498C12.5107 10.7035 12.5876 10.6786 12.6666 10.6786C12.7456 10.6786 12.8225 10.7035 12.8865 10.7498C12.9505 10.7961 12.9982 10.8615 13.0229 10.9365L13.5014 12.4088C13.5259 12.4842 13.5737 12.5499 13.6379 12.5965C13.7021 12.643 13.7794 12.668 13.8587 12.6679ZM19.042 3.75H17.917V3.375C17.917 3.07663 17.7985 2.79048 17.5875 2.5795C17.3765 2.36853 17.0904 2.25 16.792 2.25C16.4936 2.25 16.2075 2.36853 15.9965 2.5795C15.7855 2.79048 15.667 3.07663 15.667 3.375V3.75H10.792C10.6925 3.75 10.5972 3.78951 10.5268 3.85984C10.4565 3.93016 10.417 4.02554 10.417 4.125C10.417 4.22446 10.4565 4.31984 10.5268 4.39016C10.5972 4.46049 10.6925 4.5 10.792 4.5H15.667V5.625C15.667 5.92337 15.7855 6.20952 15.9965 6.4205C16.2075 6.63147 16.4936 6.75 16.792 6.75C17.0904 6.75 17.3765 6.63147 17.5875 6.4205C17.7985 6.20952 17.917 5.92337 17.917 5.625V4.5H19.042C19.7379 4.50079 20.4052 4.77761 20.8973 5.26972C21.3894 5.76183 21.6662 6.42905 21.667 7.125V7.5H4.79199C4.69254 7.5 4.59715 7.53951 4.52683 7.60983C4.4565 7.68016 4.41699 7.77554 4.41699 7.875C4.41699 7.97446 4.4565 8.06984 4.52683 8.14017C4.59715 8.21049 4.69254 8.25 4.79199 8.25H21.667V16.875C21.6662 17.5709 21.3894 18.2382 20.8973 18.7303C20.4052 19.2224 19.7379 19.4992 19.042 19.5H6.29199C5.59604 19.4992 4.92882 19.2224 4.43671 18.7303C3.9446 18.2382 3.66779 17.5709 3.66699 16.875V7.125C3.66779 6.42905 3.9446 5.76183 4.43671 5.26972C4.92882 4.77761 5.59604 4.50079 6.29199 4.5H7.41699V5.625C7.41699 5.92337 7.53552 6.20952 7.7465 6.4205C7.95748 6.63147 8.24362 6.75 8.54199 6.75C8.84036 6.75 9.12651 6.63147 9.33749 6.4205C9.54847 6.20952 9.66699 5.92337 9.66699 5.625V3.375C9.66699 3.07663 9.54847 2.79048 9.33749 2.5795C9.12651 2.36853 8.84036 2.25 8.54199 2.25C8.24362 2.25 7.95748 2.36853 7.7465 2.5795C7.53552 2.79048 7.41699 3.07663 7.41699 3.375V3.75H6.29199C5.39719 3.75099 4.53932 4.10689 3.9066 4.73961C3.27388 5.37233 2.91798 6.2302 2.91699 7.125V16.875C2.91798 17.7698 3.27388 18.6277 3.9066 19.2604C4.53932 19.8931 5.39719 20.249 6.29199 20.25H19.042C19.9368 20.249 20.7947 19.8931 21.4274 19.2604C22.0601 18.6277 22.416 17.7698 22.417 16.875V7.125C22.416 6.2302 22.0601 5.37233 21.4274 4.73961C20.7947 4.10689 19.9368 3.75099 19.042 3.75ZM17.167 5.625C17.167 5.72446 17.1275 5.81984 17.0572 5.89016C16.9868 5.96049 16.8914 6 16.792 6C16.6925 6 16.5972 5.96049 16.5268 5.89016C16.4565 5.81984 16.417 5.72446 16.417 5.625V3.375C16.417 3.27554 16.4565 3.18016 16.5268 3.10984C16.5972 3.03951 16.6925 3 16.792 3C16.8914 3 16.9868 3.03951 17.0572 3.10984C17.1275 3.18016 17.167 3.27554 17.167 3.375V5.625ZM8.16699 3.375C8.16699 3.27554 8.2065 3.18016 8.27683 3.10984C8.34715 3.03951 8.44254 3 8.54199 3C8.64145 3 8.73683 3.03951 8.80716 3.10984C8.87748 3.18016 8.91699 3.27554 8.91699 3.375V5.625C8.91699 5.72446 8.87748 5.81984 8.80716 5.89016C8.73683 5.96049 8.64145 6 8.54199 6C8.44254 6 8.34715 5.96049 8.27683 5.89016C8.2065 5.81984 8.16699 5.72446 8.16699 5.625V3.375Z" fill="#31A354"/>
</svg>
