<svg width="23" height="23" viewBox="0 0 23 23" fill="none" xmlns="http://www.w3.org/2000/svg">
<g clip-path="url(#clip0_140_3571)">
<path d="M14.6193 3.46106L8.00805 3.46108C7.90859 3.4611 7.81319 3.50059 7.74286 3.57092C7.67252 3.64126 7.63304 3.73665 7.63306 3.83611L7.63308 4.00327C7.6331 4.5894 7.83516 5.15919 8.21748 5.65103C8.53122 6.05466 8.95444 6.391 9.45121 6.63347L9.45118 10.1004C8.3553 10.3451 7.43712 10.7985 6.84326 11.3923C6.37697 11.8586 6.1305 12.3975 6.13048 12.9508L6.13048 13.1598C6.1305 13.3669 6.29837 13.5348 6.50549 13.5348L10.343 13.5348L10.343 18.4606C10.343 18.4809 10.3447 18.5012 10.3479 18.5212L10.9436 22.1577C10.9732 22.339 11.1299 22.4721 11.3136 22.4721C11.4163 22.4721 11.5105 22.4305 11.5789 22.3622C11.6328 22.3082 11.6706 22.2377 11.6837 22.1577L12.2794 18.5212C12.2827 18.5012 12.2844 18.4809 12.2844 18.4606V13.5349H16.1219C16.2255 13.5349 16.3192 13.4929 16.3871 13.4251C16.4549 13.3572 16.4969 13.2634 16.4969 13.1599L16.4969 12.9508C16.4969 11.6693 15.1754 10.5469 13.1762 10.1005V6.63334C13.5438 6.45342 13.8763 6.21904 14.1484 5.94696C14.6939 5.40147 14.9943 4.7112 14.9943 4.00341L14.9943 3.83615C14.9943 3.73669 14.9548 3.64128 14.8845 3.57097C14.8142 3.50059 14.7188 3.46106 14.6193 3.46106ZM11.5344 18.4301L11.3137 19.7774L11.093 18.4301L11.093 13.5349H11.5343L11.5344 18.4301ZM13.6181 5.41658C13.3593 5.67547 13.0275 5.89249 12.6586 6.04421C12.518 6.10199 12.4262 6.23899 12.4262 6.391V10.407C12.4262 10.5881 12.5557 10.7434 12.734 10.7759C14.405 11.0808 15.6013 11.892 15.7346 12.7849L6.89265 12.7849C6.93636 12.488 7.0976 12.1987 7.37362 11.9227C7.9077 11.3886 8.82617 10.9706 9.8935 10.7759C10.0717 10.7434 10.2012 10.5881 10.2012 10.407L10.2012 6.391C10.2012 6.23899 10.1094 6.10201 9.96885 6.04418C9.0705 5.6747 8.48464 4.9848 8.39508 4.21108L14.2325 4.21105C14.1821 4.64917 13.9723 5.06243 13.6181 5.41658Z" fill="black"/>
</g>
<defs>
<clipPath id="clip0_140_3571">
<rect width="16" height="16" fill="white" transform="translate(0 11.3137) rotate(-45)"/>
</clipPath>
</defs>
</svg>
