<svg width="16" height="17" viewBox="0 0 16 17" fill="none" xmlns="http://www.w3.org/2000/svg">
<path fill-rule="evenodd" clip-rule="evenodd" d="M6.73516 3.24014C6.41781 3.67872 1.73699 11.4745 1.3344 12.0311C0.982453 12.5182 0.9335 13.1617 1.20696 13.6967C1.48041 14.2316 2.03154 14.5686 2.63247 14.5686H13.434C14.0349 14.5686 14.586 14.2316 14.8595 13.6967C15.133 13.1617 15.084 12.5182 14.7321 12.0311C14.6164 11.8722 9.40051 3.33591 9.33131 3.24014C9.03 2.82316 8.54722 2.57672 8.03323 2.57672C7.51923 2.57672 7.03647 2.82316 6.73516 3.24014ZM7.54624 3.82531C7.65934 3.6688 7.83995 3.57651 8.03323 3.57651C8.2265 3.57651 8.40711 3.6688 8.52021 3.82531C8.58857 3.91992 13.8062 12.4574 13.921 12.6163C14.0526 12.799 14.0712 13.0408 13.9691 13.2417C13.8661 13.442 13.6593 13.5688 13.434 13.5688C10.561 13.5688 5.50544 13.5688 2.63247 13.5688C2.40712 13.5688 2.20035 13.442 2.09738 13.2417C1.99526 13.0408 2.01382 12.799 2.14548 12.6163C2.54723 12.0597 7.2289 4.2639 7.54624 3.82531Z" fill="#0E0F0F"/>
<path fill-rule="evenodd" clip-rule="evenodd" d="M7.5 5.62744V10.6274C7.5 10.9034 7.724 11.1274 8 11.1274C8.276 11.1274 8.5 10.9034 8.5 10.6274V5.62744C8.5 5.35144 8.276 5.12744 8 5.12744C7.724 5.12744 7.5 5.35144 7.5 5.62744Z" fill="#0E0F0F"/>
<path d="M8 12.6274C8.27614 12.6274 8.5 12.4036 8.5 12.1274C8.5 11.8513 8.27614 11.6274 8 11.6274C7.72386 11.6274 7.5 11.8513 7.5 12.1274C7.5 12.4036 7.72386 12.6274 8 12.6274Z" fill="#0E0F0F"/>
</svg>
