<svg width="20" height="20" viewBox="0 0 20 20" fill="none" xmlns="http://www.w3.org/2000/svg">
<path fill-rule="evenodd" clip-rule="evenodd" d="M13.5416 5.00217C13.5416 4.14489 12.5619 3.65442 11.8748 4.16952L9.3045 6.09637C9.02834 6.30342 8.63659 6.24737 8.4295 5.97117C8.22249 5.69499 8.27854 5.30325 8.55475 5.09621L11.125 3.16937C12.6353 2.03712 14.7916 3.11388 14.7916 5.00217V10.8332C14.7916 11.1785 14.5118 11.4582 14.1666 11.4582C13.8214 11.4582 13.5416 11.1785 13.5416 10.8332V5.00217ZM2.89131 2.8913C3.13539 2.64722 3.53112 2.64722 3.77519 2.8913L17.1085 16.2246C17.3526 16.4687 17.3526 16.8645 17.1085 17.1085C16.8644 17.3526 16.4688 17.3526 16.2247 17.1085L14.7147 15.5985C14.3176 17.099 12.4665 17.8361 11.125 16.8305L7.56939 14.165C7.38911 14.0298 7.16988 13.9567 6.94457 13.9567H4.99992C3.73454 13.9567 2.70825 12.9313 2.70825 11.6658V8.33396C2.70825 7.06849 3.73454 6.04308 4.99992 6.04308H5.15921L2.89131 3.77518C2.64724 3.5311 2.64724 3.13537 2.89131 2.8913ZM6.40921 7.29308H4.99992C4.42435 7.29308 3.95825 7.75938 3.95825 8.33396V11.6658C3.95825 12.2405 4.42435 12.7067 4.99992 12.7067H6.94457C7.44024 12.7067 7.92256 12.8675 8.31917 13.1648L11.8748 15.8303C12.5619 16.3454 13.5416 15.855 13.5416 14.9976V14.4255L6.40921 7.29308Z" fill="black"/>
</svg>
