<svg width="20" height="20" viewBox="0 0 20 20" fill="none" xmlns="http://www.w3.org/2000/svg">
<path fill-rule="evenodd" clip-rule="evenodd" d="M8.59064 0.764404C6.20577 0.764404 4.27246 2.69772 4.27246 5.08259C4.27246 7.46745 6.20577 9.40075 8.59064 9.40075C10.9755 9.40075 12.9088 7.46745 12.9088 5.08259C12.9088 2.69772 10.9755 0.764404 8.59064 0.764404ZM5.6361 5.08259C5.6361 3.45083 6.95889 2.12804 8.59064 2.12804C10.2224 2.12804 11.5452 3.45083 11.5452 5.08259C11.5452 6.71434 10.2224 8.03713 8.59064 8.03713C6.95889 8.03713 5.6361 6.71434 5.6361 5.08259Z" fill="#31A354"/>
<path d="M5.8636 10.7644C3.47872 10.7644 1.54541 12.6978 1.54541 15.0826C1.54541 17.4675 3.47872 19.4008 5.8636 19.4008H11.3181C11.6947 19.4008 12 19.0955 12 18.7189C12 18.3424 11.6947 18.0371 11.3181 18.0371H5.8636C4.23184 18.0371 2.90905 16.7143 2.90905 15.0826C2.90905 13.4509 4.23184 12.128 5.8636 12.128H11.3181C11.6947 12.128 12 11.8228 12 11.4462C12 11.0697 11.6947 10.7644 11.3181 10.7644H5.8636Z" fill="#31A354"/>
<path d="M15.6363 12.3553C15.6363 11.9787 15.331 11.6735 14.9545 11.6735C14.578 11.6735 14.2727 11.9787 14.2727 12.3553V14.4007H12.2272C11.8507 14.4007 11.5454 14.706 11.5454 15.0826C11.5454 15.4591 11.8507 15.7644 12.2272 15.7644H14.2727V17.8098C14.2727 18.1864 14.578 18.4916 14.9545 18.4916C15.331 18.4916 15.6363 18.1864 15.6363 17.8098V15.7644H17.6818C18.0583 15.7644 18.3636 15.4591 18.3636 15.0826C18.3636 14.706 18.0583 14.4007 17.6818 14.4007H15.6363V12.3553Z" fill="#31A354"/>
</svg>
