<svg width="24" height="24" viewBox="0 0 24 24" fill="none" xmlns="http://www.w3.org/2000/svg">
<path d="M20.1452 16.75C19.9675 16.7496 19.7906 16.7278 19.6182 16.685L16.8912 15.985C16.2363 15.8172 15.6709 15.4042 15.3119 14.8313C14.9528 14.2585 14.8277 13.5696 14.9622 12.907L15.0792 12.329C13.0797 11.73 10.9486 11.73 8.94917 12.329L9.06417 12.919C9.1935 13.5809 9.06439 14.2672 8.7034 14.8369C8.3424 15.4066 7.77693 15.8163 7.12317 15.982L4.38217 16.675C3.95636 16.7812 3.5082 16.7543 3.09817 16.5979C2.68813 16.4414 2.33596 16.1629 2.08917 15.8C1.69558 15.1887 1.43177 14.503 1.31411 13.7855C1.19644 13.068 1.22744 12.334 1.40517 11.629C1.55263 10.9633 1.83514 10.3349 2.23523 9.78275C2.63532 9.23061 3.14447 8.76645 3.73117 8.41901C6.25343 6.99479 9.10131 6.24748 11.9979 6.24976C14.8945 6.25204 17.7412 7.00382 20.2612 8.43201C20.8514 8.78203 21.3636 9.24948 21.7659 9.8054C22.1682 10.3613 22.4522 10.9939 22.6002 11.664C22.7767 12.3621 22.8081 13.0891 22.6923 13.7998C22.5765 14.5106 22.3161 15.19 21.9272 15.796C21.7326 16.0904 21.4678 16.3317 21.1567 16.4982C20.8457 16.6647 20.498 16.7513 20.1452 16.75ZM12.0172 10.378C13.4467 10.3773 14.865 10.6303 16.2062 11.125C16.3742 11.1871 16.5145 11.3071 16.6018 11.4635C16.6891 11.62 16.7176 11.8024 16.6822 11.978L16.4332 13.205C16.3753 13.4905 16.4292 13.7874 16.5839 14.0343C16.7385 14.2813 16.982 14.4594 17.2642 14.532L19.9872 15.232C20.1134 15.2663 20.2473 15.26 20.3698 15.2139C20.4922 15.1677 20.597 15.0841 20.6692 14.975C20.9464 14.5399 21.1311 14.0524 21.2118 13.5428C21.2924 13.0332 21.2674 12.5125 21.1382 12.013C21.0381 11.5439 20.8431 11.1003 20.5652 10.7094C20.2873 10.3185 19.9323 9.98863 19.5222 9.74001C17.2274 8.43891 14.635 7.75382 11.997 7.75137C9.35906 7.74891 6.76536 8.42918 4.46817 9.72601C4.06202 9.97221 3.71055 10.2989 3.43539 10.686C3.16023 11.0732 2.9672 11.5125 2.86817 11.977C2.74081 12.4808 2.7168 13.0052 2.79757 13.5186C2.87835 14.032 3.06224 14.5236 3.33817 14.964C3.41198 15.0716 3.5172 15.1537 3.63946 15.1991C3.76171 15.2446 3.89503 15.2512 4.02117 15.218L6.76017 14.524C7.04193 14.4527 7.28564 14.2761 7.44115 14.0306C7.59665 13.785 7.65214 13.4892 7.59617 13.204L7.35017 11.966C7.31577 11.7906 7.34512 11.6087 7.43293 11.4531C7.52075 11.2974 7.66127 11.1782 7.82917 11.117C9.17151 10.6288 10.5888 10.3787 12.0172 10.378Z" fill="white"/>
</svg>
