<svg width="20" height="20" viewBox="0 0 20 20" fill="none" xmlns="http://www.w3.org/2000/svg">
<g clip-path="url(#clip0_143_8699)">
<path d="M10.1285 7.42242C9.0018 7.42242 8.08838 8.3358 8.08838 9.46254C8.08838 10.5892 9.00175 11.5027 10.1285 11.5027C11.2552 11.5027 12.1686 10.5893 12.1686 9.46254C12.1686 8.3358 11.2552 7.42242 10.1285 7.42242ZM10.1285 10.5311C9.5383 10.5311 9.05986 10.0527 9.05986 9.4625C9.05986 8.8723 9.5383 8.39386 10.1285 8.39386C10.7187 8.39386 11.1971 8.8723 11.1971 9.4625C11.1971 10.0527 10.7187 10.5311 10.1285 10.5311Z" fill="#31A354"/>
<path d="M18.2645 2.75931L5.00379 1.25356C4.48914 1.18038 3.9677 1.33063 3.57089 1.66645C3.17412 1.9741 2.91979 2.43014 2.86657 2.92936L2.62372 4.9209H1.87077C0.802135 4.9209 0.000656343 5.86806 0.000656343 6.9367V16.87C-0.0262595 17.8891 0.778008 18.737 1.79709 18.764C1.82164 18.7646 1.84623 18.7647 1.87077 18.7644H15.2043C16.2729 18.7644 17.2444 17.9387 17.2444 16.87V16.4815C17.5757 16.4174 17.89 16.2851 18.1673 16.0929C18.5608 15.7616 18.8128 15.2924 18.8716 14.7814L19.9888 4.9209C20.1027 3.84979 19.3341 2.88626 18.2645 2.75931ZM16.2729 16.87C16.2729 17.4044 15.7386 17.7929 15.2043 17.7929H1.87077C1.3881 17.8071 0.985339 17.4273 0.971161 16.9447C0.970417 16.9198 0.970742 16.8949 0.972137 16.87V15.0728L4.73664 12.3041C5.18886 11.9569 5.82582 11.9878 6.24243 12.377L8.88972 14.7085C9.29173 15.046 9.79779 15.2347 10.3227 15.2428C10.7331 15.2478 11.1367 15.1385 11.4885 14.9271L16.273 12.1584V16.87H16.2729ZM16.2729 11.0169L10.9784 14.1013C10.5237 14.3707 9.94827 14.3219 9.54541 13.9799L6.87386 11.6241C6.10818 10.9661 4.98906 10.9258 4.178 11.5269L0.972137 13.8584V6.9367C0.972137 6.40238 1.33645 5.89238 1.87077 5.89238H15.2043C15.7751 5.91604 16.2362 6.36659 16.2729 6.9367V11.0169ZM19.0183 4.78976C19.018 4.79296 19.0177 4.79622 19.0173 4.79943L17.8758 14.6599C17.8778 14.9156 17.7612 15.1577 17.5601 15.3157C17.4629 15.4128 17.2444 15.4614 17.2444 15.51V6.9367C17.206 5.83027 16.3111 4.94595 15.2042 4.9209H3.59515L3.81373 3.02651C3.86115 2.7812 3.98941 2.5589 4.17805 2.39504C4.39105 2.24777 4.64859 2.17911 4.90668 2.20072L18.1431 3.73079C18.6771 3.78151 19.069 4.25562 19.0183 4.78976Z" fill="#31A354"/>
</g>
<defs>
<clipPath id="clip0_143_8699">
<rect width="20" height="20" fill="white"/>
</clipPath>
</defs>
</svg>
