<svg width="20" height="20" viewBox="0 0 20 20" fill="none" xmlns="http://www.w3.org/2000/svg">
<path fill-rule="evenodd" clip-rule="evenodd" d="M11.5081 7.56797C11.0743 7.81846 10.8662 8.26619 10.8224 8.7065C10.7785 9.14786 10.8896 9.62704 11.1372 10.0559C11.3848 10.4848 11.7442 10.8206 12.1484 11.0032C12.5517 11.1854 13.0435 11.229 13.4773 10.9785C13.9111 10.7281 14.1192 10.2803 14.1631 9.84003C14.207 9.39865 14.0959 8.91949 13.8483 8.49063C13.6007 8.06176 13.2412 7.72594 12.837 7.54331C12.4338 7.36112 11.942 7.31749 11.5081 7.56797ZM12.0657 9.51982C11.9176 9.26329 11.8699 9.00673 11.8893 8.81269C11.9087 8.61757 11.9858 8.53019 12.0442 8.49646C12.1026 8.46275 12.2169 8.43962 12.3956 8.52036C12.5733 8.60065 12.7717 8.77015 12.9198 9.02671C13.0679 9.28324 13.1155 9.53978 13.0962 9.73384C13.0768 9.92893 12.9996 10.0163 12.9412 10.05C12.8828 10.0838 12.7686 10.1069 12.5899 10.0262C12.4122 9.94588 12.2138 9.77638 12.0657 9.51982Z" fill="#31A354"/>
<path d="M6.73935 7.33753C7.1957 7.33753 7.56562 6.96762 7.56562 6.51127C7.56562 6.05494 7.1957 5.685 6.73935 5.685C6.28302 5.685 5.91309 6.05494 5.91309 6.51127C5.91309 6.96762 6.28302 7.33753 6.73935 7.33753Z" fill="#31A354"/>
<path d="M10.341 6.06632C10.341 6.52265 9.97107 6.89259 9.51474 6.89259C9.05839 6.89259 8.68848 6.52265 8.68848 6.06632C8.68848 5.60999 9.05839 5.24005 9.51474 5.24005C9.97107 5.24005 10.341 5.60999 10.341 6.06632Z" fill="#31A354"/>
<path d="M7.40683 12.2528C7.86316 12.2528 8.2331 11.8828 8.2331 11.4265C8.2331 10.9702 7.86316 10.6002 7.40683 10.6002C6.95048 10.6002 6.58057 10.9702 6.58057 11.4265C6.58057 11.8828 6.95048 12.2528 7.40683 12.2528Z" fill="#31A354"/>
<path d="M6.87715 9.09598C6.87715 9.55231 6.50721 9.92225 6.05088 9.92225C5.59453 9.92225 5.22461 9.55231 5.22461 9.09598C5.22461 8.63965 5.59453 8.26971 6.05088 8.26971C6.50721 8.26971 6.87715 8.63965 6.87715 9.09598Z" fill="#31A354"/>
<path fill-rule="evenodd" clip-rule="evenodd" d="M16.1071 6.89857C14.7833 4.91648 12.4649 3.56492 10.1388 3.12747C8.90192 2.89488 7.62374 2.91568 6.47197 3.26327C5.46223 3.56799 4.54968 4.12387 3.84729 4.98036C1.62529 7.68817 2.50481 12.2855 6.25576 15.1397C7.38827 16.0048 8.84223 16.5373 10.1322 16.8064C10.7809 16.9418 11.4018 17.0135 11.9376 17.0246C12.4592 17.0355 12.9487 16.9904 13.307 16.8577C13.5518 16.767 13.7815 16.6523 13.9481 16.4886C14.1401 16.2999 14.252 16.0373 14.1935 15.7413C14.1455 15.499 13.996 15.315 13.8832 15.1971C13.7613 15.0698 13.6124 14.9497 13.4722 14.8426C13.3822 14.7739 13.2942 14.709 13.2084 14.6458C13.0032 14.4944 12.8111 14.3528 12.6379 14.193C12.3883 13.9628 12.3088 13.8066 12.2995 13.7108L12.2993 13.709L12.2988 13.7023C12.3067 13.6949 12.3227 13.6822 12.3519 13.6659C12.4757 13.5967 12.7013 13.5372 13.0306 13.5024C13.3468 13.469 13.7011 13.4635 14.0465 13.4649C14.138 13.4652 14.2311 13.4662 14.323 13.4671L14.3251 13.4671C14.5623 13.4695 14.7917 13.4718 14.9677 13.4642L14.9731 13.4639C15.6538 13.4279 16.2217 13.1677 16.6342 12.7208C17.0392 12.2818 17.2593 11.7016 17.3306 11.0758C17.4723 9.83224 17.0433 8.30298 16.1071 6.89857ZM4.67636 5.6602C5.84353 4.23681 7.84543 3.78716 9.94065 4.18116C12.031 4.57428 14.0769 5.78921 15.2155 7.49403C16.0508 8.74721 16.3711 10.0257 16.2653 10.9544C16.2129 11.4148 16.06 11.762 15.8463 11.9936C15.6403 12.2168 15.3443 12.3701 14.919 12.3931C14.7729 12.3993 14.5893 12.3974 14.3682 12.3952C14.2699 12.3942 14.164 12.3932 14.0509 12.3927C13.6984 12.3913 13.2955 12.3963 12.9179 12.4362C12.5535 12.4747 12.1488 12.5512 11.8289 12.7299C11.6624 12.8229 11.495 12.9567 11.3773 13.1502C11.2554 13.3504 11.2091 13.5782 11.2323 13.814C11.2817 14.3239 11.6207 14.7134 11.911 14.9811C12.1309 15.1839 12.3977 15.3807 12.618 15.5431C12.6924 15.598 12.7614 15.6489 12.8216 15.6948C12.8875 15.7452 12.9439 15.79 12.9915 15.8303C12.9738 15.8374 12.9549 15.8448 12.9346 15.8522C12.7653 15.915 12.4357 15.9626 11.9599 15.9527C11.4981 15.9431 10.9433 15.8804 10.3511 15.7569C9.15941 15.5082 7.87116 15.0246 6.90623 14.2874L6.90541 14.2868C3.46537 11.6694 2.96417 7.74659 4.67636 5.6602Z" fill="#31A354"/>
</svg>
