<svg width="16" height="16" viewBox="0 0 16 16" fill="none" xmlns="http://www.w3.org/2000/svg">
<g clip-path="url(#clip0_140_3558)">
<path d="M0.706875 15.1003C0.810625 15.1003 0.904374 15.036 0.940937 14.9378C2.1925 11.5888 5.38937 9.40784 8.94312 9.45034V12.3391C8.94312 12.4375 9.00094 12.5266 9.09062 12.5672C9.18031 12.6075 9.28531 12.5916 9.35906 12.5263L15.6659 6.93159C15.7194 6.88409 15.75 6.81597 15.75 6.74472C15.75 6.67347 15.7194 6.60503 15.6659 6.55784L9.35906 0.96253C9.28531 0.897217 9.18031 0.88128 9.09062 0.921592C9.00094 0.961905 8.94312 1.05128 8.94312 1.14972V4.04065C6.31906 4.11534 3.88156 5.32847 2.22344 7.39409C0.52 9.51628 -0.121876 12.2535 0.4625 14.9044C0.48625 15.0125 0.578437 15.0922 0.689062 15.1C0.695 15.1003 0.700937 15.1007 0.706875 15.1007V15.1003ZM8.84125 8.95003C7.10312 8.95003 5.41938 9.45222 3.95031 10.4122C2.58813 11.3022 1.51531 12.5225 0.810938 13.9728C0.543751 11.7357 1.18094 9.49128 2.61312 7.70722C4.22844 5.69503 6.62687 4.53972 9.19312 4.53722C9.33125 4.53722 9.44281 4.42534 9.44281 4.28722V1.70565L15.1231 6.74441L9.44312 11.7832V9.2069C9.44312 9.07284 9.33719 8.96253 9.20312 8.95722C9.08219 8.95222 8.96156 8.95003 8.84125 8.95003Z" fill="#0E0F0F" stroke="#0E0F0F" stroke-width="0.4"/>
</g>
<defs>
<clipPath id="clip0_140_3558">
<rect width="16" height="16" fill="white" transform="matrix(-1 0 0 1 16 0)"/>
</clipPath>
</defs>
</svg>
