<svg width="32" height="32" viewBox="0 0 32 32" fill="none" xmlns="http://www.w3.org/2000/svg">
<circle cx="16" cy="16" r="16" fill="#0077B5"/>
<path fill-rule="evenodd" clip-rule="evenodd" d="M11.8198 8.22713C11.8198 9.22321 11.0614 10.0293 9.87532 10.0293C8.73548 10.0293 7.97706 9.22321 8.00053 8.22713C7.97706 7.18265 8.73547 6.40002 9.89804 6.40002C11.0614 6.40002 11.7971 7.18265 11.8198 8.22713ZM8.09589 23.0553V11.453H11.7017V23.0545H8.09589V23.0553Z" fill="white"/>
<path fill-rule="evenodd" clip-rule="evenodd" d="M14.5915 15.1558C14.5915 13.7086 14.5438 12.4749 14.4961 11.4546H17.6281L17.7946 13.0441H17.8657C18.3403 12.3084 19.5263 11.1942 21.4481 11.1942C23.8202 11.1942 25.5996 12.7602 25.5996 16.1753V23.0569H21.9938V16.6271C21.9938 15.1316 21.4723 14.112 20.1674 14.112C19.1706 14.112 18.578 14.8 18.341 15.4638C18.2457 15.7015 18.1987 16.033 18.1987 16.366V23.0569H14.5929V15.1558H14.5915Z" fill="white"/>
</svg>
