<svg width="32" height="33" viewBox="0 0 32 33" fill="none" xmlns="http://www.w3.org/2000/svg">
<path d="M0 32.1436L2.26048 23.89C0.866293 21.4747 0.132794 18.7344 0.133689 15.9272C0.137262 7.1449 7.28426 0 16.0668 0C20.3288 0.00207887 24.329 1.66067 27.3376 4.67136C30.3453 7.68204 32.0015 11.6838 32 15.94C31.9961 24.7217 24.8479 31.8678 16.0668 31.8678C16.0662 31.8678 16.0675 31.8678 16.0668 31.8678H16.06C13.3937 31.8667 10.7736 31.1979 8.44628 29.9287L0 32.1436Z" fill="white"/>
<path d="M16.0723 2.69043C8.76745 2.69043 2.82691 8.62881 2.82422 15.928C2.82314 18.4293 3.52314 20.8655 4.84869 22.9735L5.16381 23.4743L3.82566 28.3593L8.83787 27.0451L9.32186 27.3319C11.3546 28.5384 13.6852 29.1763 16.0621 29.1775H16.0671C23.3663 29.1775 29.3069 23.2385 29.3098 15.9387C29.3111 12.4013 27.9351 9.07494 25.4347 6.57274C22.9343 4.07055 19.6097 2.69192 16.0723 2.69043Z" fill="url(#paint0_linear_161_3519)"/>
<path fill-rule="evenodd" clip-rule="evenodd" d="M12.0846 9.26839C11.7862 8.60561 11.4723 8.59218 11.1888 8.58055C10.9566 8.5707 10.691 8.5713 10.4257 8.5713C10.1602 8.5713 9.72895 8.67097 9.36429 9.06935C8.99933 9.46773 7.9707 10.4307 7.9707 12.3895C7.9707 14.3483 9.39741 16.2408 9.59616 16.5067C9.7952 16.7723 12.3502 20.9202 16.397 22.5158C19.7598 23.842 20.4441 23.5782 21.1743 23.5119C21.9042 23.4457 23.5296 22.549 23.8612 21.6194C24.193 20.6898 24.193 19.8934 24.0936 19.7269C23.994 19.5607 23.7287 19.4613 23.3303 19.2622C22.9322 19.0632 20.9749 18.0999 20.61 17.9671C20.245 17.8343 19.9797 17.7681 19.7141 18.1665C19.4488 18.5648 18.6864 19.4613 18.4539 19.7269C18.2218 19.9928 17.9896 20.0259 17.5912 19.8268C17.1931 19.6272 15.9109 19.2073 14.3899 17.851C13.2064 16.7959 12.4075 15.4927 12.175 15.0943C11.9429 14.6959 12.1503 14.4805 12.3499 14.282C12.5287 14.1036 12.748 13.8171 12.9473 13.5846C13.1458 13.3522 13.2123 13.1863 13.3448 12.921C13.4776 12.6551 13.4114 12.4226 13.3117 12.2236C13.2123 12.0245 12.4385 10.0556 12.0846 9.26839Z" fill="white"/>
<defs>
<linearGradient id="paint0_linear_161_3519" x1="15.7974" y1="4.27994" x2="15.9317" y2="26.9147" gradientUnits="userSpaceOnUse">
<stop stop-color="#57D163"/>
<stop offset="1" stop-color="#23B33A"/>
</linearGradient>
</defs>
</svg>
