<svg width="24" height="25" viewBox="0 0 24 25" fill="none" xmlns="http://www.w3.org/2000/svg">
<path fill-rule="evenodd" clip-rule="evenodd" d="M11.6155 3.40003L13.9359 3.40003C14.4593 3.40003 14.7592 3.40002 15.0179 3.42038C18.2543 3.6751 20.825 6.24572 21.0797 9.4822C21.1 9.74087 21.1 10.0407 21.1 10.5642V10.6376C21.1 11.438 21.1 11.8771 21.0704 12.2532C20.6999 16.9609 16.9609 20.6999 12.2532 21.0704C11.8771 21.1 11.438 21.1 10.6376 21.1H10.2524C9.5543 21.1 9.15436 21.1001 8.81015 21.0639C5.71097 20.7381 3.26192 18.2891 2.93619 15.1899C2.90001 14.8457 2.90002 14.4458 2.90003 13.7478L2.90003 12.1155C2.89993 10.1494 2.89987 9.02155 3.18423 8.08415C3.8241 5.97478 5.47478 4.3241 7.58415 3.68423C8.52155 3.39987 9.6494 3.39993 11.6155 3.40003ZM11.75 4.60003C9.61286 4.60003 8.67751 4.60656 7.9325 4.83256C6.20665 5.35609 4.85609 6.70665 4.33256 8.4325C4.10656 9.17751 4.10003 10.1129 4.10003 12.25V13.7C4.10003 14.4583 4.10086 14.7909 4.12961 15.0645C4.39613 17.6002 6.39989 19.6039 8.93558 19.8704C9.20913 19.8992 9.54177 19.9 10.3 19.9H10.6C11.4472 19.9 11.836 19.8996 12.1591 19.8741C12.2949 19.8634 12.3998 19.7476 12.3994 19.6067C12.3993 19.5731 12.3992 19.5396 12.3991 19.506C12.3968 18.7486 12.3944 17.9839 12.4565 17.224C12.514 16.5199 12.6331 15.9382 12.9014 15.4117C13.3424 14.5461 14.0461 13.8424 14.9117 13.4014C15.4382 13.1331 16.0199 13.014 16.724 12.9565C17.5478 12.8892 18.3761 12.8929 19.1978 12.8975C19.4427 12.8988 19.5331 12.8971 19.6099 12.8611C19.6767 12.8298 19.7451 12.7682 19.7831 12.7051C19.827 12.6321 19.8372 12.5507 19.8593 12.3269C19.8648 12.2711 19.8697 12.2152 19.8741 12.1591C19.8996 11.836 19.9 11.4472 19.9 10.6C19.9 10.0314 19.8996 9.78193 19.8834 9.57635C19.675 6.92832 17.5717 4.82508 14.9237 4.61668C14.7181 4.6005 14.4687 4.60003 13.9 4.60003H11.75ZM18.9752 14.0978C18.2536 14.0945 17.5349 14.0943 16.8217 14.1525C16.1918 14.204 15.7856 14.3029 15.4565 14.4706C14.8167 14.7966 14.2966 15.3167 13.9706 15.9565C13.8029 16.2856 13.704 16.6918 13.6525 17.3217C13.6128 17.8079 13.6031 18.3967 13.6008 19.1526C13.6004 19.2574 13.6003 19.3289 13.6054 19.3836C13.6104 19.4369 13.6195 19.4632 13.6308 19.4811C13.6562 19.5215 13.7033 19.556 13.7494 19.5681C13.7706 19.5736 13.7977 19.5744 13.8468 19.564C13.8977 19.5533 13.9619 19.5329 14.0568 19.5026C16.4656 18.7341 18.3983 16.913 19.3177 14.5765C19.3562 14.4786 19.3823 14.412 19.3972 14.359C19.4116 14.3077 19.4123 14.2795 19.4077 14.2577C19.3976 14.2093 19.3639 14.1597 19.3228 14.1323C19.3049 14.1204 19.2776 14.1104 19.2207 14.1046C19.1626 14.0987 19.0864 14.0983 18.9752 14.0978Z" fill="#0A0A0A"/>
</svg>
