<svg width="12" height="13" viewBox="0 0 12 13" fill="none" xmlns="http://www.w3.org/2000/svg">
<path fill-rule="evenodd" clip-rule="evenodd" d="M6 11.5C8.76142 11.5 11 9.26142 11 6.5C11 3.73858 8.76142 1.5 6 1.5C3.23858 1.5 1 3.73858 1 6.5C1 9.26142 3.23858 11.5 6 11.5ZM8.66202 4.78326C8.81846 4.55571 8.76082 4.24442 8.53326 4.08798C8.30571 3.93154 7.99442 3.98918 7.83798 4.21674L5.45254 7.68646L4.12629 6.17075C3.94445 5.96293 3.62857 5.94187 3.42075 6.12371C3.21293 6.30555 3.19187 6.62143 3.37371 6.82925L5.12371 8.82925C5.22537 8.94544 5.375 9.00814 5.52912 8.99915C5.68324 8.99016 5.82456 8.91048 5.91202 8.78326L8.66202 4.78326Z" fill="black" fill-opacity="0.5"/>
</svg>
