<svg width="28" height="28" viewBox="0 0 28 28" fill="none" xmlns="http://www.w3.org/2000/svg">
<path fill-rule="evenodd" clip-rule="evenodd" d="M14 3.04995C7.95243 3.04995 3.04995 7.95243 3.04995 14C3.04995 20.0475 7.95243 24.95 14 24.95C20.0475 24.95 24.95 20.0475 24.95 14C24.95 7.95243 20.0475 3.04995 14 3.04995ZM1.44995 14C1.44995 7.06878 7.06878 1.44995 14 1.44995C20.9311 1.44995 26.5499 7.06878 26.5499 14C26.5499 20.9311 20.9311 26.5499 14 26.5499C7.06878 26.5499 1.44995 20.9311 1.44995 14ZM12.6749 13.8063L10.6499 17.35L14.1936 15.325L12.6749 13.8063ZM15.325 14.1936L13.8063 12.6749L17.35 10.6499L15.325 14.1936ZM20.1945 8.89686C20.3735 8.58363 20.3207 8.18936 20.0656 7.93427C19.8105 7.67917 19.4163 7.62637 19.103 7.80536L12.103 11.8054C11.979 11.8762 11.8762 11.979 11.8054 12.103L7.80536 19.103C7.62637 19.4163 7.67917 19.8105 7.93427 20.0656C8.18936 20.3207 8.58363 20.3735 8.89686 20.1945L15.8969 16.1945C16.0209 16.1237 16.1237 16.0209 16.1945 15.8969L20.1945 8.89686Z" fill="#31A354"/>
</svg>
