<svg width="28" height="28" viewBox="0 0 28 28" fill="none" xmlns="http://www.w3.org/2000/svg">
<path fill-rule="evenodd" clip-rule="evenodd" d="M5.79995 6.99995C5.79995 5.23264 7.23264 3.79995 8.99995 3.79995H15.2V8C15.2 9.5464 16.4536 10.8 18 10.8H22.2V21C22.2 22.7673 20.7673 24.2 19 24.2H8.99995C7.23264 24.2 5.79995 22.7673 5.79995 21V6.99995ZM22.0536 9.2C21.9005 8.7117 21.6312 8.26257 21.2627 7.89406L18.1058 4.73721C17.7374 4.36873 17.2883 4.09939 16.8 3.94637V8C16.8 8.66274 17.3373 9.2 18 9.2H22.0536ZM8.99995 2.19995C6.34898 2.19995 4.19995 4.34898 4.19995 6.99995V21C4.19995 23.6509 6.34898 25.7999 8.99995 25.7999H19C21.6509 25.7999 23.7999 23.6509 23.7999 21V10.1568C23.7999 8.88377 23.2942 7.66287 22.3941 6.76269L19.2372 3.60584C18.337 2.70566 17.1161 2.19995 15.8431 2.19995H8.99995Z" fill="#31A354"/>
</svg>
