<svg width="28" height="28" viewBox="0 0 28 28" fill="none" xmlns="http://www.w3.org/2000/svg">
<path fill-rule="evenodd" clip-rule="evenodd" d="M3.19995 6.49995C3.19995 5.50584 4.00584 4.69995 4.99995 4.69995H19C19.9941 4.69995 20.7999 5.50584 20.7999 6.49995V8.49995C20.7999 9.49406 19.9941 10.3 19 10.3H4.99995C4.00584 10.3 3.19995 9.49406 3.19995 8.49995V6.49995ZM4.99995 6.29995C4.88949 6.29995 4.79995 6.38949 4.79995 6.49995V8.49995C4.79995 8.61041 4.88949 8.69995 4.99995 8.69995H19C19.1104 8.69995 19.2 8.61041 19.2 8.49995V6.49995C19.2 6.38949 19.1104 6.29995 19 6.29995H4.99995ZM3.19995 13C3.19995 12.0058 4.00584 11.2 4.99995 11.2H23C23.9941 11.2 24.7999 12.0058 24.7999 13V15C24.7999 15.9941 23.9941 16.8 23 16.8H4.99995C4.00584 16.8 3.19995 15.9941 3.19995 15V13ZM4.99995 12.8C4.88949 12.8 4.79995 12.8895 4.79995 13V15C4.79995 15.1104 4.88949 15.2 4.99995 15.2H23C23.1104 15.2 23.2 15.1104 23.2 15V13C23.2 12.8895 23.1104 12.8 23 12.8H4.99995ZM4.99995 17.7C4.00584 17.7 3.19995 18.5058 3.19995 19.5V21.5C3.19995 22.4941 4.00584 23.3 4.99995 23.3H14C14.9941 23.3 15.8 22.4941 15.8 21.5V19.5C15.8 18.5058 14.9941 17.7 14 17.7H4.99995ZM4.79995 19.5C4.79995 19.3895 4.88949 19.3 4.99995 19.3H14C14.1104 19.3 14.2 19.3895 14.2 19.5V21.5C14.2 21.6104 14.1104 21.7 14 21.7H4.99995C4.88949 21.7 4.79995 21.6104 4.79995 21.5V19.5Z" fill="#31A354"/>
</svg>
