<svg width="28" height="28" viewBox="0 0 28 28" fill="none" xmlns="http://www.w3.org/2000/svg">
<path fill-rule="evenodd" clip-rule="evenodd" d="M13.1213 3.19996L13.0755 3.19995C12.6626 3.19992 12.3929 3.19989 12.1295 3.22901C11.2245 3.32904 10.3667 3.68435 9.65613 4.2535C9.44924 4.4192 9.25857 4.60991 8.9666 4.90193L8.93427 4.93427L8.67691 5.19163C8.60439 5.26415 8.57728 5.29118 8.5513 5.31595C7.97521 5.86523 7.21508 6.18009 6.41932 6.19905C6.38343 6.1999 6.34515 6.19996 6.24259 6.19996L6.21841 6.19996C6.01624 6.19995 5.88589 6.19994 5.77136 6.2054C3.3001 6.32323 1.32323 8.3001 1.2054 10.7714C1.19994 10.8859 1.19994 11.0162 1.19995 11.2184V11.2184V11.2426V18.6V18.635V18.635C1.19995 19.7254 1.19994 20.5926 1.25711 21.2923C1.31565 22.0088 1.43809 22.6197 1.72312 23.1791C2.18331 24.0823 2.91762 24.8166 3.8208 25.2768C4.3802 25.5618 4.99113 25.6843 5.70761 25.7428C6.40725 25.8 7.27443 25.8 8.3648 25.8H8.36486H8.39995H19.6H19.635H19.6351C20.7255 25.8 21.5927 25.8 22.2923 25.7428C23.0088 25.6843 23.6197 25.5618 24.1791 25.2768C25.0823 24.8166 25.8166 24.0823 26.2768 23.1791C26.5618 22.6197 26.6843 22.0088 26.7428 21.2923C26.8 20.5927 26.8 19.7255 26.8 18.6351V18.635V18.6V11.2426V11.2184C26.8 11.0162 26.8 10.8859 26.7945 10.7714C26.6767 8.3001 24.6998 6.32323 22.2285 6.2054C22.114 6.19994 21.9837 6.19995 21.7815 6.19996L21.7573 6.19996C21.6548 6.19996 21.6165 6.1999 21.5806 6.19905C20.7848 6.18009 20.0247 5.86523 19.4486 5.31595C19.4226 5.29118 19.3955 5.26415 19.323 5.19163L19.0656 4.93427L19.0333 4.90192L19.0333 4.90191C18.7413 4.6099 18.5507 4.4192 18.3438 4.2535C17.6332 3.68435 16.7754 3.32904 15.8704 3.22901C15.607 3.19989 15.3373 3.19992 14.9244 3.19995L14.8786 3.19996H13.1213ZM12.3052 4.81933C12.4703 4.80108 12.6471 4.79996 13.1213 4.79996H14.8786C15.3528 4.79996 15.5296 4.80108 15.6947 4.81933C16.2979 4.88601 16.8698 5.12289 17.3436 5.50232C17.4732 5.60613 17.599 5.73037 17.9343 6.06564L18.1916 6.323L18.1987 6.33006C18.2618 6.3932 18.303 6.43442 18.3445 6.47395C19.2086 7.29787 20.3488 7.77016 21.5425 7.79859C21.5998 7.79996 21.6581 7.79996 21.7474 7.79996H21.7573C21.9918 7.79996 22.081 7.80019 22.1523 7.80359C23.7999 7.88214 25.1178 9.20005 25.1963 10.8476C25.1997 10.9189 25.2 11.0081 25.2 11.2426V18.6C25.2 19.7333 25.1993 20.5351 25.1481 21.162C25.0977 21.7795 25.0021 22.1565 24.8512 22.4527C24.5444 23.0548 24.0548 23.5444 23.4527 23.8512C23.1565 24.0021 22.7795 24.0977 22.162 24.1481C21.5351 24.1993 20.7333 24.2 19.6 24.2H8.39995C7.26665 24.2 6.46478 24.1993 5.83791 24.1481C5.22037 24.0977 4.84343 24.0021 4.54718 23.8512C3.94506 23.5444 3.45553 23.0548 3.14873 22.4527C2.99779 22.1565 2.90225 21.7795 2.85179 21.162C2.80058 20.5351 2.79995 19.7333 2.79995 18.6V11.2426C2.79995 11.0081 2.80018 10.9189 2.80358 10.8476C2.88213 9.20005 4.20005 7.88214 5.84756 7.80359C5.91891 7.80019 6.00808 7.79996 6.24259 7.79996H6.25251C6.34183 7.79996 6.40015 7.79996 6.45743 7.79859C7.65107 7.77016 8.79126 7.29787 9.65541 6.47395C9.69687 6.43441 9.7381 6.39318 9.80125 6.33003L9.80828 6.323L10.0656 6.06564C10.4009 5.73037 10.5267 5.60613 10.6564 5.50232C11.1301 5.12289 11.702 4.88601 12.3052 4.81933ZM9.79995 15.5C9.79995 13.1804 11.6804 11.3 14 11.3C16.3195 11.3 18.2 13.1804 18.2 15.5C18.2 17.8196 16.3195 19.7 14 19.7C11.6804 19.7 9.79995 17.8196 9.79995 15.5ZM14 9.69996C10.7967 9.69996 8.19995 12.2967 8.19995 15.5C8.19995 18.7032 10.7967 21.3 14 21.3C17.2032 21.3 19.8 18.7032 19.8 15.5C19.8 12.2967 17.2032 9.69996 14 9.69996Z" fill="#31A354"/>
</svg>
