<svg width="28" height="28" viewBox="0 0 28 28" fill="none" xmlns="http://www.w3.org/2000/svg">
<path fill-rule="evenodd" clip-rule="evenodd" d="M5.99995 5.19995C3.34898 5.19995 1.19995 7.34898 1.19995 9.99995V18C1.19995 20.6509 3.34898 22.7999 5.99995 22.7999H15C17.6509 22.7999 19.7999 20.6509 19.7999 18V17.7393L22.8381 20.3434C24.3949 21.6778 26.7999 20.5716 26.7999 18.5212V9.4787C26.7999 7.42826 24.3949 6.32207 22.8381 7.65649L19.7999 10.2606V9.99995C19.7999 7.34898 17.6509 5.19995 15 5.19995H5.99995ZM19.7999 12.4599V15.54C19.7999 15.5984 19.8255 15.6539 19.8698 15.6919L23.8793 19.1286C24.3983 19.5734 25.2 19.2047 25.2 18.5212V9.4787C25.2 8.79522 24.3983 8.42649 23.8793 8.8713L19.8698 12.308C19.8255 12.346 19.7999 12.4015 19.7999 12.4599ZM18.2 12.4599V9.99995C18.2 8.23264 16.7673 6.79995 15 6.79995H5.99995C4.23264 6.79995 2.79995 8.23264 2.79995 9.99995V18C2.79995 19.7673 4.23264 21.2 5.99995 21.2H15C16.7673 21.2 18.2 19.7673 18.2 18V15.54V12.4599Z" fill="#31A354"/>
</svg>
