<svg width="28" height="28" viewBox="0 0 28 28" fill="none" xmlns="http://www.w3.org/2000/svg">
<path fill-rule="evenodd" clip-rule="evenodd" d="M8.39995 3.94995H8.36495H8.36494C7.27451 3.94994 6.40728 3.94994 5.70761 4.00711C4.99113 4.06564 4.38019 4.18809 3.8208 4.47312C2.91762 4.93331 2.18331 5.66762 1.72312 6.5708C1.43809 7.13019 1.31564 7.74113 1.25711 8.45761C1.19994 9.15728 1.19994 10.0245 1.19995 11.1149V11.1149V11.15V16.85V16.885C1.19994 17.9754 1.19994 18.8426 1.25711 19.5423C1.31564 20.2588 1.43809 20.8697 1.72312 21.4291C2.18331 22.3323 2.91762 23.0666 3.8208 23.5268C4.38019 23.8118 4.99113 23.9343 5.70761 23.9928C6.40725 24.05 7.27443 24.05 8.36479 24.05H8.36486H8.39995H19.6H19.635H19.6351C20.7255 24.05 21.5927 24.05 22.2923 23.9928C23.0088 23.9343 23.6197 23.8118 24.1791 23.5268C25.0823 23.0666 25.8166 22.3323 26.2768 21.4291C26.5618 20.8697 26.6843 20.2588 26.7428 19.5423C26.8 18.8426 26.8 17.9755 26.8 16.8851V16.885V16.85V11.15V11.1149V11.1148C26.8 10.0244 26.8 9.15725 26.7428 8.45761C26.6843 7.74113 26.5618 7.13019 26.2768 6.5708C25.8166 5.66762 25.0823 4.93331 24.1791 4.47312C23.6197 4.18809 23.0088 4.06564 22.2923 4.00711C21.5926 3.94994 20.7254 3.94994 19.635 3.94995H19.6H8.39995ZM4.54718 5.89873C4.84343 5.74778 5.22037 5.65225 5.8379 5.60179C6.46478 5.55057 7.26665 5.54995 8.39995 5.54995H19.6C20.7333 5.54995 21.5351 5.55057 22.162 5.60179C22.7795 5.65225 23.1565 5.74778 23.4527 5.89873C24.0548 6.20553 24.5444 6.69506 24.8512 7.29718C25.0021 7.59343 25.0977 7.97037 25.1481 8.5879C25.1993 9.21478 25.2 10.0166 25.2 11.15V16.85C25.2 17.9833 25.1993 18.7851 25.1481 19.412C25.0977 20.0295 25.0021 20.4065 24.8512 20.7027C24.5444 21.3048 24.0548 21.7944 23.4527 22.1012C23.1565 22.2521 22.7795 22.3477 22.162 22.3981C21.5351 22.4493 20.7333 22.45 19.6 22.45H8.39995C7.26665 22.45 6.46478 22.4493 5.8379 22.3981C5.22037 22.3477 4.84343 22.2521 4.54718 22.1012C3.94506 21.7944 3.45553 21.3048 3.14873 20.7027C2.99778 20.4065 2.90225 20.0295 2.85179 19.412C2.80057 18.7851 2.79995 17.9833 2.79995 16.85V11.15C2.79995 10.0166 2.80057 9.21478 2.85179 8.5879C2.90225 7.97037 2.99778 7.59343 3.14873 7.29718C3.45553 6.69506 3.94506 6.20553 4.54718 5.89873ZM6.49414 13.5498V14.6079C6.49414 16.6704 7.65967 17.9058 9.62012 17.9058C11.3335 17.9058 12.5259 16.8315 12.5259 15.2954V14.7046C12.5259 14.103 12.252 13.8291 11.6343 13.8291H10.168C9.76514 13.8291 9.53955 14.0225 9.53955 14.3716C9.53955 14.7207 9.77051 14.9194 10.168 14.9194H11.1455V15.3813C11.1455 16.1655 10.5547 16.6919 9.67383 16.6919C8.57275 16.6919 7.94971 15.9399 7.94971 14.6025V13.6089C7.94971 12.2554 8.55127 11.5249 9.65771 11.5249C10.3936 11.5249 10.8501 11.9331 11.2798 12.5024C11.4355 12.7012 11.5806 12.7817 11.79 12.7817C12.1392 12.7817 12.3862 12.54 12.3862 12.1802C12.3862 11.7935 12.0962 11.3315 11.6558 10.9717C11.1348 10.5205 10.415 10.2788 9.56104 10.2788C7.64355 10.2788 6.49414 11.5195 6.49414 13.5498ZM13.7827 17.0195C13.7827 17.5137 14.0513 17.8037 14.5132 17.8037C14.9697 17.8037 15.2329 17.5137 15.2329 17.0195V11.1489C15.2329 10.6548 14.9644 10.3647 14.5078 10.3647C14.0459 10.3647 13.7827 10.6548 13.7827 11.1489V17.0195ZM16.7905 17.0195C16.7905 17.5137 17.0645 17.8037 17.5264 17.8037C17.9829 17.8037 18.2407 17.519 18.2407 17.0195V14.8335H20.6685C21.0391 14.8335 21.2861 14.6025 21.2861 14.248C21.2861 13.8936 21.0444 13.6626 20.6685 13.6626H18.2407V11.6162H20.9424C21.3076 11.6162 21.5601 11.3799 21.5601 11.02C21.5601 10.6655 21.3076 10.4185 20.9424 10.4185H17.7573C17.1074 10.4185 16.7905 10.73 16.7905 11.3477V17.0195Z" fill="#31A354"/>
</svg>
