<svg width="28" height="28" viewBox="0 0 28 28" fill="none" xmlns="http://www.w3.org/2000/svg">
<path fill-rule="evenodd" clip-rule="evenodd" d="M23.9972 1.87329C24.1885 2.02505 24.3 2.25582 24.3 2.49996V20.5C24.3 22.5986 22.5986 24.3 20.5 24.3C18.4013 24.3 16.7 22.5986 16.7 20.5C16.7 18.4013 18.4013 16.7 20.5 16.7C21.3198 16.7 22.0791 16.9596 22.7 17.4012V8.50811L9.29995 11.6348V22.5C9.29995 24.5986 7.59863 26.3 5.49995 26.3C3.40127 26.3 1.69995 24.5986 1.69995 22.5C1.69995 20.4013 3.40127 18.7 5.49995 18.7C6.31985 18.7 7.0791 18.9596 7.69995 19.4012V5.99996C7.69995 5.62816 7.9561 5.30537 8.31817 5.22089L23.3182 1.72089C23.5559 1.66541 23.806 1.72153 23.9972 1.87329ZM9.29995 9.9918L22.7 6.86514V3.50811L9.29995 6.63478V9.9918ZM20.5 18.3C21.715 18.3 22.7 19.2849 22.7 20.5C22.7 21.715 21.715 22.7 20.5 22.7C19.2849 22.7 18.3 21.715 18.3 20.5C18.3 19.2849 19.2849 18.3 20.5 18.3ZM5.49995 20.3C6.71498 20.3 7.69995 21.2849 7.69995 22.5C7.69995 23.715 6.71498 24.7 5.49995 24.7C4.28492 24.7 3.29995 23.715 3.29995 22.5C3.29995 21.2849 4.28492 20.3 5.49995 20.3Z" fill="#31A354"/>
</svg>
