<svg width="24" height="24" viewBox="0 0 24 24" fill="none" xmlns="http://www.w3.org/2000/svg">
<path fill-rule="evenodd" clip-rule="evenodd" d="M12.25 4.60002C16.1988 4.60002 19.4 7.80119 19.4 11.75C19.4 15.6989 16.1988 18.9 12.25 18.9C8.30114 18.9 5.09998 15.6989 5.09998 11.75C5.09998 7.80119 8.30114 4.60002 12.25 4.60002ZM20.6 11.75C20.6 7.13845 16.8616 3.40002 12.25 3.40002C7.6384 3.40002 3.89997 7.13845 3.89997 11.75C3.89997 16.3616 7.6384 20.1 12.25 20.1C16.8616 20.1 20.6 16.3616 20.6 11.75ZM13.0514 10.1001H10.4999C10.1685 10.1001 9.89988 9.83149 9.89988 9.50012C9.89988 9.16875 10.1685 8.90012 10.4999 8.90012H14.4999C14.8312 8.90012 15.0999 9.16875 15.0999 9.50012V13.5001C15.0999 13.8315 14.8312 14.1001 14.4999 14.1001C14.1685 14.1001 13.8999 13.8315 13.8999 13.5001V10.9486L9.92424 14.9243C9.68993 15.1586 9.31003 15.1586 9.07571 14.9243C8.8414 14.69 8.8414 14.3101 9.07571 14.0758L13.0514 10.1001Z" fill="#767779"/>
</svg>
