<svg width="16" height="16" viewBox="0 0 16 16" fill="none" xmlns="http://www.w3.org/2000/svg">
<path d="M5.66683 12.6667H5.3335C2.66683 12.6667 1.3335 12 1.3335 8.66671V5.33337C1.3335 2.66671 2.66683 1.33337 5.3335 1.33337H10.6668C13.3335 1.33337 14.6668 2.66671 14.6668 5.33337V8.66671C14.6668 11.3334 13.3335 12.6667 10.6668 12.6667H10.3335C10.1268 12.6667 9.92683 12.7667 9.80016 12.9334L8.80016 14.2667C8.36016 14.8534 7.64016 14.8534 7.20016 14.2667L6.20016 12.9334C6.0935 12.7867 5.84683 12.6667 5.66683 12.6667Z" stroke="#292D32" stroke-miterlimit="10" stroke-linecap="round" stroke-linejoin="round"/>
<path d="M10.6641 7.33333H10.6701" stroke="#31A354" stroke-linecap="round" stroke-linejoin="round"/>
<path d="M7.99715 7.33333H8.00314" stroke="#31A354" stroke-width="2" stroke-linecap="round" stroke-linejoin="round"/>
<path d="M5.32967 7.33333H5.33566" stroke="#31A354" stroke-width="2" stroke-linecap="round" stroke-linejoin="round"/>
</svg>
