<svg width="20" height="20" viewBox="0 0 20 20" fill="none" xmlns="http://www.w3.org/2000/svg">
<path d="M7.9668 15.625C7.62513 15.625 7.3418 15.3416 7.3418 15V10.8333C7.3418 10.4916 7.62513 10.2083 7.9668 10.2083C8.30846 10.2083 8.5918 10.4916 8.5918 10.8333V15C8.5918 15.3416 8.30846 15.625 7.9668 15.625Z" fill="#31A354"/>
<path d="M10.0002 13.5417H5.8335C5.49183 13.5417 5.2085 13.2584 5.2085 12.9167C5.2085 12.575 5.49183 12.2917 5.8335 12.2917H10.0002C10.3418 12.2917 10.6252 12.575 10.6252 12.9167C10.6252 13.2584 10.3418 13.5417 10.0002 13.5417Z" fill="#31A354"/>
<path d="M6.6665 4.79169C6.32484 4.79169 6.0415 4.50835 6.0415 4.16669V1.66669C6.0415 1.32502 6.32484 1.04169 6.6665 1.04169C7.00817 1.04169 7.2915 1.32502 7.2915 1.66669V4.16669C7.2915 4.50835 7.00817 4.79169 6.6665 4.79169Z" fill="#31A354"/>
<path d="M13.3335 4.79169C12.9918 4.79169 12.7085 4.50835 12.7085 4.16669V1.66669C12.7085 1.32502 12.9918 1.04169 13.3335 1.04169C13.6752 1.04169 13.9585 1.32502 13.9585 1.66669V4.16669C13.9585 4.50835 13.6752 4.79169 13.3335 4.79169Z" fill="#31A354"/>
<path d="M7.37501 19.0083C5.31668 19.0083 3.95835 18.5583 3.10835 17.5917C2.12501 16.4833 1.96668 14.825 1.93335 13.35L1.82501 8.20834C1.74168 4.26667 3.05001 2.625 6.46668 2.36667L13.1667 2.23334C13.1833 2.23334 13.1917 2.23334 13.2 2.23334C16.625 2.35 17.9917 3.93334 18.075 7.88334L18.175 13.025C18.2083 14.5 18.1083 16.1667 17.175 17.3083C16.325 18.35 14.8917 18.8583 12.6667 18.9083L7.66668 19.0083C7.56668 19.0083 7.46668 19.0083 7.37501 19.0083ZM13.1667 3.475L6.52501 3.60834C4.19168 3.79167 3.00001 4.54167 3.07501 8.18334L3.18335 13.325C3.21668 15.0917 3.47501 16.125 4.04168 16.7667C4.67501 17.4833 5.81668 17.8 7.65001 17.7583L12.65 17.6583C14.475 17.625 15.6083 17.2583 16.2167 16.5167C16.7583 15.8583 16.975 14.8167 16.9333 13.05L16.8333 7.90834C16.75 4.275 15.5333 3.55834 13.1667 3.475Z" fill="#31A354"/>
</svg>
