<svg width="20" height="20" viewBox="0 0 20 20" fill="none" xmlns="http://www.w3.org/2000/svg">
<path d="M10 8.7667C9.65833 8.7667 9.375 8.48337 9.375 8.1417V5.3667C9.375 5.02503 9.65833 4.7417 10 4.7417C10.3417 4.7417 10.625 5.02503 10.625 5.3667V8.1417C10.625 8.4917 10.3417 8.7667 10 8.7667Z" fill="#31A354"/>
<path d="M10.0167 16.9583C7.86672 16.9583 5.72505 16.6167 3.68339 15.9333C2.92505 15.6833 2.35005 15.1417 2.10005 14.4583C1.85005 13.775 1.93339 12.9917 2.34172 12.3083L3.40005 10.5417C3.63339 10.15 3.84172 9.41666 3.84172 8.95833V7.20833C3.84172 3.79999 6.60839 1.03333 10.0167 1.03333C13.4251 1.03333 16.1917 3.79999 16.1917 7.20833V8.95833C16.1917 9.40833 16.4001 10.15 16.6334 10.5417L17.6917 12.3083C18.0834 12.9583 18.1501 13.7333 17.8917 14.4417C17.6334 15.15 17.0667 15.6917 16.3501 15.9333C14.3084 16.625 12.1667 16.9583 10.0167 16.9583ZM10.0167 2.29166C7.30005 2.29166 5.09172 4.49999 5.09172 7.21666V8.96666C5.09172 9.64166 4.82505 10.6167 4.47505 11.1917L3.41672 12.9667C3.20005 13.325 3.15005 13.7083 3.27505 14.0417C3.40005 14.375 3.68339 14.625 4.08339 14.7583C7.91672 16.0333 12.1334 16.0333 15.9667 14.7583C16.3251 14.6417 16.6001 14.375 16.7251 14.025C16.8584 13.675 16.8167 13.2917 16.6251 12.9667L15.5667 11.2C15.2167 10.625 14.9501 9.64999 14.9501 8.97499V7.22499C14.9417 4.49999 12.7334 2.29166 10.0167 2.29166Z" fill="#31A354"/>
<path d="M10.0001 19.0833C9.10843 19.0833 8.23343 18.7167 7.6001 18.0833C6.96676 17.45 6.6001 16.575 6.6001 15.6833H7.8501C7.8501 16.25 8.08343 16.8 8.48343 17.2C8.88343 17.6 9.43343 17.8333 10.0001 17.8333C11.1834 17.8333 12.1501 16.8667 12.1501 15.6833H13.4001C13.4001 17.5583 11.8751 19.0833 10.0001 19.0833Z" fill="#31A354"/>
</svg>
