<svg width="20" height="20" viewBox="0 0 20 20" fill="none" xmlns="http://www.w3.org/2000/svg">
<path d="M9.99971 18.9584C9.79971 18.9584 9.59972 18.9334 9.40805 18.8751C5.08305 17.6834 1.94971 13.6417 1.94971 9.25839V5.60004C1.94971 4.66671 2.62471 3.65842 3.49138 3.30009L8.13305 1.40006C9.34138 0.908394 10.6664 0.908394 11.8664 1.40006L16.508 3.30009C17.3747 3.65842 18.0497 4.66671 18.0497 5.60004V9.25839C18.0497 13.6334 14.908 17.6751 10.5914 18.8751C10.3997 18.9334 10.1997 18.9584 9.99971 18.9584ZM9.99971 2.29173C9.52471 2.29173 9.05803 2.38341 8.60803 2.56675L3.96638 4.46672C3.56638 4.63339 3.19971 5.17505 3.19971 5.60838V9.26673C3.19971 13.0917 5.94971 16.6251 9.74138 17.6751C9.90805 17.7251 10.0914 17.7251 10.258 17.6751C14.0497 16.6251 16.7997 13.0917 16.7997 9.26673V5.60838C16.7997 5.17505 16.433 4.63339 16.033 4.46672L11.3914 2.56675C10.9414 2.38341 10.4747 2.29173 9.99971 2.29173Z" fill="#31A354"/>
<path d="M10.0002 11.0416C8.7335 11.0416 7.7085 10.0166 7.7085 8.74998C7.7085 7.48331 8.7335 6.45831 10.0002 6.45831C11.2668 6.45831 12.2918 7.48331 12.2918 8.74998C12.2918 10.0166 11.2668 11.0416 10.0002 11.0416ZM10.0002 7.70831C9.42516 7.70831 8.9585 8.17498 8.9585 8.74998C8.9585 9.32498 9.42516 9.79165 10.0002 9.79165C10.5752 9.79165 11.0418 9.32498 11.0418 8.74998C11.0418 8.17498 10.5752 7.70831 10.0002 7.70831Z" fill="#31A354"/>
<path d="M10 13.5417C9.65833 13.5417 9.375 13.2584 9.375 12.9167V10.4167C9.375 10.075 9.65833 9.79169 10 9.79169C10.3417 9.79169 10.625 10.075 10.625 10.4167V12.9167C10.625 13.2584 10.3417 13.5417 10 13.5417Z" fill="#31A354"/>
</svg>
