<svg width="20" height="20" viewBox="0 0 20 20" fill="currentColor" xmlns="http://www.w3.org/2000/svg">
<path d="M10 13.125C8.275 13.125 6.875 11.725 6.875 10C6.875 8.275 8.275 6.875 10 6.875C11.725 6.875 13.125 8.275 13.125 10C13.125 11.725 11.725 13.125 10 13.125ZM10 8.125C8.96667 8.125 8.125 8.96667 8.125 10C8.125 11.0333 8.96667 11.875 10 11.875C11.0333 11.875 11.875 11.0333 11.875 10C11.875 8.96667 11.0333 8.125 10 8.125Z" fill="#757575"/>
<path d="M12.675 18.4916C12.5 18.4916 12.325 18.4666 12.15 18.425C11.6333 18.2833 11.2 17.9583 10.925 17.5L10.825 17.3333C10.3333 16.4833 9.65829 16.4833 9.16663 17.3333L9.07496 17.4916C8.79996 17.9583 8.36663 18.2916 7.84996 18.425C7.32496 18.5666 6.78329 18.4916 6.32496 18.2166L4.89163 17.3916C4.38329 17.1 4.01663 16.625 3.85829 16.05C3.70829 15.475 3.78329 14.8833 4.07496 14.375C4.31663 13.95 4.38329 13.5666 4.24163 13.325C4.09996 13.0833 3.74163 12.9416 3.24996 12.9416C2.03329 12.9416 1.04163 11.95 1.04163 10.7333V9.26662C1.04163 8.04995 2.03329 7.05829 3.24996 7.05829C3.74163 7.05829 4.09996 6.91662 4.24163 6.67495C4.38329 6.43329 4.32496 6.04995 4.07496 5.62495C3.78329 5.11662 3.70829 4.51662 3.85829 3.94995C4.00829 3.37495 4.37496 2.89995 4.89163 2.60829L6.33329 1.78329C7.27496 1.22495 8.51663 1.54995 9.08329 2.50829L9.18329 2.67495C9.67496 3.52495 10.35 3.52495 10.8416 2.67495L10.9333 2.51662C11.5 1.54995 12.7416 1.22495 13.6916 1.79162L15.125 2.61662C15.6333 2.90829 16 3.38329 16.1583 3.95829C16.3083 4.53329 16.2333 5.12495 15.9416 5.63329C15.7 6.05829 15.6333 6.44162 15.775 6.68329C15.9166 6.92495 16.275 7.06662 16.7666 7.06662C17.9833 7.06662 18.975 8.05829 18.975 9.27495V10.7416C18.975 11.9583 17.9833 12.95 16.7666 12.95C16.275 12.95 15.9166 13.0916 15.775 13.3333C15.6333 13.575 15.6916 13.9583 15.9416 14.3833C16.2333 14.8916 16.3166 15.4916 16.1583 16.0583C16.0083 16.6333 15.6416 17.1083 15.125 17.4L13.6833 18.225C13.3666 18.4 13.025 18.4916 12.675 18.4916ZM9.99996 15.4083C10.7416 15.4083 11.4333 15.875 11.9083 16.7L12 16.8583C12.1 17.0333 12.2666 17.1583 12.4666 17.2083C12.6666 17.2583 12.8666 17.2333 13.0333 17.1333L14.475 16.3C14.6916 16.175 14.8583 15.9666 14.925 15.7166C14.9916 15.4666 14.9583 15.2083 14.8333 14.9916C14.3583 14.175 14.3 13.3333 14.6666 12.6916C15.0333 12.05 15.7916 11.6833 16.7416 11.6833C17.275 11.6833 17.7 11.2583 17.7 10.725V9.25829C17.7 8.73329 17.275 8.29995 16.7416 8.29995C15.7916 8.29995 15.0333 7.93329 14.6666 7.29162C14.3 6.64995 14.3583 5.80829 14.8333 4.99162C14.9583 4.77495 14.9916 4.51662 14.925 4.26662C14.8583 4.01662 14.7 3.81662 14.4833 3.68329L13.0416 2.85829C12.6833 2.64162 12.2083 2.76662 11.9916 3.13329L11.9 3.29162C11.425 4.11662 10.7333 4.58329 9.99163 4.58329C9.24996 4.58329 8.55829 4.11662 8.08329 3.29162L7.99163 3.12495C7.78329 2.77495 7.31663 2.64995 6.95829 2.85829L5.51663 3.69162C5.29996 3.81662 5.13329 4.02495 5.06663 4.27495C4.99996 4.52495 5.03329 4.78329 5.15829 4.99995C5.63329 5.81662 5.69163 6.65829 5.32496 7.29995C4.95829 7.94162 4.19996 8.30829 3.24996 8.30829C2.71663 8.30829 2.29163 8.73329 2.29163 9.26662V10.7333C2.29163 11.2583 2.71663 11.6916 3.24996 11.6916C4.19996 11.6916 4.95829 12.0583 5.32496 12.7C5.69163 13.3416 5.63329 14.1833 5.15829 15C5.03329 15.2166 4.99996 15.475 5.06663 15.725C5.13329 15.975 5.29163 16.175 5.50829 16.3083L6.94996 17.1333C7.12496 17.2416 7.33329 17.2666 7.52496 17.2166C7.72496 17.1666 7.89163 17.0333 7.99996 16.8583L8.09163 16.7C8.56663 15.8833 9.25829 15.4083 9.99996 15.4083Z" fill="#757575"/>
</svg>
