<svg width="21" height="20" viewBox="0 0 21 20" fill="none" xmlns="http://www.w3.org/2000/svg">
<path d="M13.8499 6.62498C15.8833 8.65831 15.8833 11.9583 13.8499 13.9916C11.8166 16.0249 8.51659 16.0249 6.48325 13.9916C4.44992 11.9583 4.44992 8.65831 6.48325 6.62498C8.51659 4.59164 11.8166 4.59164 13.8499 6.62498Z" stroke="#757575" stroke-width="1.5" stroke-linecap="round" stroke-linejoin="round"/>
<path d="M7.04162 18.0334C5.37496 17.3667 3.91662 16.1584 2.94995 14.4834C1.99995 12.8417 1.68329 11.0167 1.90829 9.27502" stroke="#757575" stroke-width="1.5" stroke-linecap="round" stroke-linejoin="round"/>
<path d="M5.04163 3.73334C6.45829 2.625 8.23329 1.96667 10.1666 1.96667C12.0583 1.96667 13.8 2.60833 15.2 3.675" stroke="#757575" stroke-width="1.5" stroke-linecap="round" stroke-linejoin="round"/>
<path d="M13.2916 18.0334C14.9583 17.3667 16.4166 16.1584 17.3833 14.4834C18.3333 12.8417 18.65 11.0167 18.425 9.27502" stroke="#757575" stroke-width="1.5" stroke-linecap="round" stroke-linejoin="round"/>
</svg>
