<svg width="18" height="20" viewBox="0 0 18 20" fill="none" xmlns="http://www.w3.org/2000/svg">
<path d="M17.7626 5.01526C16.6212 5.01526 15.5681 4.63713 14.7224 3.99924C13.7524 3.26799 13.0556 2.19534 12.8095 0.959009C12.7485 0.65354 12.7157 0.338306 12.7126 0.0152588H9.45204V8.92463L9.44814 13.8047C9.44814 15.1094 8.59853 16.2156 7.42079 16.6047C7.079 16.7176 6.70986 16.7711 6.32548 16.75C5.83486 16.7231 5.37509 16.575 4.97548 16.336C4.12509 15.8274 3.54853 14.9047 3.5329 13.8492C3.50829 12.1996 4.84189 10.8547 6.49032 10.8547C6.81571 10.8547 7.12822 10.9078 7.42079 11.0043V8.56917V7.69377C7.1122 7.64807 6.79814 7.62424 6.48056 7.62424C4.67626 7.62424 2.98876 8.37424 1.78251 9.72542C0.870793 10.7465 0.323918 12.0492 0.239543 13.4153C0.128996 15.2098 0.785636 16.9156 2.05907 18.1742C2.24618 18.359 2.44267 18.5305 2.64814 18.6887C3.73993 19.5289 5.0747 19.9844 6.48056 19.9844C6.79814 19.9844 7.1122 19.961 7.42079 19.9153C8.73407 19.7207 9.94579 19.1196 10.902 18.1742C12.077 17.0129 12.7263 15.4711 12.7333 13.8301L12.7165 6.5426C13.277 6.97502 13.8899 7.33284 14.5477 7.61057C15.5708 8.04221 16.6556 8.26096 17.772 8.26057V5.89299V5.01448C17.7727 5.01526 17.7634 5.01526 17.7626 5.01526Z" fill="#31A354"/>
</svg>
